<svg width="14" height="14" viewBox="0 0 14 14" fill="none" xmlns="http://www.w3.org/2000/svg">
<rect x="0.5" y="0.5" width="13" height="13" rx="1.5" stroke="#808080" style="stroke:#808080;stroke:color(display-p3 0.5020 0.5020 0.5020);stroke-opacity:1;"/>
<path d="M5.67578 4.375C5.83203 4.375 5.97135 4.41536 6.09375 4.49609C6.21615 4.57422 6.3112 4.6862 6.37891 4.83203L8.3125 9.04688C8.35156 9.125 8.41927 9.16406 8.51562 9.16406H9.75C9.86979 9.16406 9.97005 9.20443 10.0508 9.28516C10.1341 9.36589 10.1758 9.46354 10.1758 9.57812C10.1758 9.69271 10.1341 9.79036 10.0508 9.87109C9.96745 9.94922 9.86719 9.98828 9.75 9.98828H8.31641C8.14714 9.98828 8.00651 9.95312 7.89453 9.88281C7.78255 9.8099 7.6888 9.69271 7.61328 9.53125L5.67188 5.31641C5.65365 5.27474 5.6276 5.24479 5.59375 5.22656C5.5625 5.20833 5.52604 5.19922 5.48438 5.19922H4.24609C4.1263 5.19922 4.02474 5.16016 3.94141 5.08203C3.86068 5.0013 3.82031 4.90234 3.82031 4.78516C3.82031 4.67057 3.86068 4.57422 3.94141 4.49609C4.02474 4.41536 4.1263 4.375 4.24609 4.375H5.67578ZM9.75 4.375C9.86979 4.375 9.97005 4.41406 10.0508 4.49219C10.1315 4.57031 10.1719 4.66667 10.1719 4.78125C10.1719 4.89844 10.1315 4.99609 10.0508 5.07422C9.97005 5.15234 9.86979 5.19141 9.75 5.19141H7.91797C7.79818 5.19141 7.69792 5.15234 7.61719 5.07422C7.53646 4.99609 7.49609 4.89844 7.49609 4.78125C7.49609 4.66667 7.53646 4.57031 7.61719 4.49219C7.69792 4.41406 7.79818 4.375 7.91797 4.375H9.75Z" fill="#808080" style="fill:#808080;fill:color(display-p3 0.5020 0.5020 0.5020);fill-opacity:1;"/>
</svg>
