<svg width="13" height="14" viewBox="0 0 13 14" fill="none" xmlns="http://www.w3.org/2000/svg">
<rect x="0.5" y="0.5" width="12" height="13" rx="1.5" stroke="#808080" style="stroke:#808080;stroke:color(display-p3 0.5020 0.5020 0.5020);stroke-opacity:1;"/>
<path d="M4.23438 10V4.36328H6.34766C6.90755 4.36328 7.38411 4.47266 7.77734 4.69141C8.17318 4.91016 8.47526 5.22786 8.68359 5.64453C8.89453 6.0612 9 6.5638 9 7.15234V7.16016C9 7.76172 8.89583 8.27474 8.6875 8.69922C8.47917 9.12109 8.17708 9.44401 7.78125 9.66797C7.38802 9.88932 6.91016 10 6.34766 10H4.23438ZM5.24219 9.15234H6.21484C6.58724 9.15234 6.90495 9.07552 7.16797 8.92188C7.43099 8.76823 7.63021 8.54427 7.76562 8.25C7.90365 7.95573 7.97266 7.59766 7.97266 7.17578V7.16797C7.97266 6.75651 7.90234 6.40495 7.76172 6.11328C7.6237 5.81901 7.42318 5.59505 7.16016 5.44141C6.89714 5.28776 6.58203 5.21094 6.21484 5.21094H5.24219V9.15234Z" fill="#808080" style="fill:#808080;fill:color(display-p3 0.5020 0.5020 0.5020);fill-opacity:1;"/>
</svg>
