<svg width="14" height="14" viewBox="0 0 14 14" fill="none" xmlns="http://www.w3.org/2000/svg">
<rect x="0.5" y="0.5" width="13" height="13" rx="1.5" stroke="#808080" style="stroke:#808080;stroke:color(display-p3 0.5020 0.5020 0.5020);stroke-opacity:1;"/>
<path d="M4.32812 6.76953L6.64453 4.42578C6.7513 4.32161 6.87109 4.26953 7.00391 4.26953C7.13932 4.26953 7.25781 4.32161 7.35938 4.42578L9.67188 6.76953C9.75781 6.85547 9.80078 6.96094 9.80078 7.08594C9.80078 7.21094 9.75651 7.31771 9.66797 7.40625C9.58203 7.49219 9.47656 7.53516 9.35156 7.53516C9.22917 7.53516 9.11979 7.48828 9.02344 7.39453L6.85547 5.19141H7.15234L4.98047 7.39453C4.88411 7.48828 4.77474 7.53516 4.65234 7.53516C4.52474 7.53516 4.41667 7.49219 4.32812 7.40625C4.24219 7.31771 4.19922 7.21094 4.19922 7.08594C4.19922 6.96354 4.24219 6.85807 4.32812 6.76953Z" fill="#808080" style="fill:#808080;fill:color(display-p3 0.5020 0.5020 0.5020);fill-opacity:1;"/>
</svg>
