<svg width="19" height="14" viewBox="0 0 19 14" fill="none" xmlns="http://www.w3.org/2000/svg">
<rect x="0.5" y="0.5" width="18" height="13" rx="1.5" stroke="#808080" style="stroke:#808080;stroke:color(display-p3 0.5020 0.5020 0.5020);stroke-opacity:1;"/>
<path d="M5.33984 10.0195C4.85026 10.0195 4.4974 9.92969 4.28125 9.75C4.0651 9.57031 3.95703 9.27604 3.95703 8.86719V6.48438H3.29297V5.73047H3.95703V4.68359H4.94531V5.73047H5.84375V6.48438H4.94531V8.63672C4.94531 8.84766 4.98958 9.0026 5.07812 9.10156C5.16927 9.19792 5.3151 9.24609 5.51562 9.24609C5.58594 9.24609 5.64323 9.24479 5.6875 9.24219C5.73438 9.23698 5.78646 9.23177 5.84375 9.22656V9.97656C5.77604 9.98958 5.69792 10 5.60938 10.0078C5.52344 10.0156 5.43359 10.0195 5.33984 10.0195ZM7.98047 10.0703C7.71224 10.0703 7.47135 10.0182 7.25781 9.91406C7.04688 9.8099 6.88021 9.66276 6.75781 9.47266C6.63802 9.27995 6.57812 9.05339 6.57812 8.79297V8.78516C6.57812 8.53255 6.64062 8.3151 6.76562 8.13281C6.89062 7.94792 7.07422 7.80339 7.31641 7.69922C7.55859 7.59505 7.85286 7.53385 8.19922 7.51562L9.77734 7.41797V8.05859L8.33594 8.15234C8.0625 8.16797 7.86068 8.22526 7.73047 8.32422C7.60026 8.42318 7.53516 8.5612 7.53516 8.73828V8.74609C7.53516 8.92839 7.60417 9.07031 7.74219 9.17188C7.88281 9.27344 8.0612 9.32422 8.27734 9.32422C8.47266 9.32422 8.64714 9.28516 8.80078 9.20703C8.95443 9.12891 9.07552 9.02344 9.16406 8.89062C9.2526 8.75521 9.29688 8.60286 9.29688 8.43359V7.08203C9.29688 6.86849 9.22917 6.70573 9.09375 6.59375C8.95833 6.47917 8.75781 6.42188 8.49219 6.42188C8.27083 6.42188 8.08984 6.46094 7.94922 6.53906C7.80859 6.61458 7.71354 6.72266 7.66406 6.86328L7.66016 6.87891H6.74219L6.74609 6.84375C6.77734 6.60417 6.87109 6.39453 7.02734 6.21484C7.18359 6.03516 7.39062 5.89583 7.64844 5.79688C7.90625 5.69792 8.20312 5.64844 8.53906 5.64844C8.90885 5.64844 9.22135 5.70573 9.47656 5.82031C9.73177 5.93229 9.92578 6.09635 10.0586 6.3125C10.1914 6.52604 10.2578 6.78255 10.2578 7.08203V10H9.29688V9.41406H9.23047C9.15234 9.54948 9.05078 9.66667 8.92578 9.76562C8.80339 9.86458 8.66276 9.9401 8.50391 9.99219C8.34505 10.0443 8.17057 10.0703 7.98047 10.0703ZM13.8008 10.0703C13.6003 10.0703 13.4167 10.0417 13.25 9.98438C13.0833 9.92448 12.9362 9.83984 12.8086 9.73047C12.6836 9.61849 12.582 9.48568 12.5039 9.33203H12.4375V10H11.4648V4.07812H12.4375V6.41016H12.5039C12.5794 6.25651 12.681 6.1237 12.8086 6.01172C12.9362 5.89974 13.0846 5.8138 13.2539 5.75391C13.4232 5.69141 13.6055 5.66016 13.8008 5.66016C14.1602 5.66016 14.4701 5.75 14.7305 5.92969C14.9935 6.10677 15.1966 6.36068 15.3398 6.69141C15.4831 7.01953 15.5547 7.41016 15.5547 7.86328V7.87109C15.5547 8.31901 15.4818 8.70833 15.3359 9.03906C15.1927 9.36979 14.9896 9.625 14.7266 9.80469C14.4661 9.98177 14.1576 10.0703 13.8008 10.0703ZM13.4961 9.25C13.7174 9.25 13.9076 9.19531 14.0664 9.08594C14.2253 8.97396 14.3477 8.8151 14.4336 8.60938C14.5195 8.40365 14.5625 8.15755 14.5625 7.87109V7.86328C14.5625 7.57682 14.5195 7.33073 14.4336 7.125C14.3477 6.91667 14.2253 6.75781 14.0664 6.64844C13.9076 6.53646 13.7174 6.48047 13.4961 6.48047C13.2773 6.48047 13.0872 6.53646 12.9258 6.64844C12.7643 6.76042 12.6393 6.91927 12.5508 7.125C12.4648 7.33073 12.4219 7.57682 12.4219 7.86328V7.87109C12.4219 8.15495 12.4648 8.40104 12.5508 8.60938C12.6393 8.8151 12.763 8.97396 12.9219 9.08594C13.0833 9.19531 13.2747 9.25 13.4961 9.25Z" fill="#808080" style="fill:#808080;fill:color(display-p3 0.5020 0.5020 0.5020);fill-opacity:1;"/>
</svg>
