<svg width="13" height="14" viewBox="0 0 13 14" fill="none" xmlns="http://www.w3.org/2000/svg">
<rect x="0.5" y="0.5" width="12" height="13" rx="1.5" stroke="#808080" style="stroke:#808080;stroke:color(display-p3 0.5020 0.5020 0.5020);stroke-opacity:1;"/>
<path d="M4.97656 10V9.21875H6.65234C7.02474 9.21875 7.30729 9.14323 7.5 8.99219C7.69271 8.83854 7.78906 8.61849 7.78906 8.33203V8.32422C7.78906 8.13411 7.74479 7.97396 7.65625 7.84375C7.56771 7.71354 7.4349 7.61589 7.25781 7.55078C7.08333 7.48568 6.86719 7.45312 6.60938 7.45312H4.97656V6.73828H6.45312C6.8099 6.73828 7.08073 6.67057 7.26562 6.53516C7.45312 6.39974 7.54688 6.20443 7.54688 5.94922V5.94141C7.54688 5.69141 7.46224 5.49609 7.29297 5.35547C7.1237 5.21484 6.88672 5.14453 6.58203 5.14453H4.97656V4.36328H6.82422C7.18359 4.36328 7.49089 4.42057 7.74609 4.53516C8.0013 4.64714 8.19792 4.80859 8.33594 5.01953C8.47396 5.22786 8.54297 5.47656 8.54297 5.76562V5.77344C8.54297 5.97135 8.4974 6.15625 8.40625 6.32812C8.31771 6.5 8.19792 6.64323 8.04688 6.75781C7.89844 6.8724 7.72917 6.94531 7.53906 6.97656V7.04688C7.79167 7.07031 8.01302 7.14323 8.20312 7.26562C8.39583 7.38542 8.54557 7.54297 8.65234 7.73828C8.76172 7.93359 8.81641 8.15234 8.81641 8.39453V8.40234C8.81641 8.73047 8.73828 9.01432 8.58203 9.25391C8.42839 9.49349 8.20703 9.67839 7.91797 9.80859C7.62891 9.9362 7.28385 10 6.88281 10H4.97656ZM4.47266 10V4.36328H5.48047V10H4.47266Z" fill="#808080" style="fill:#808080;fill:color(display-p3 0.5020 0.5020 0.5020);fill-opacity:1;"/>
</svg>
