<svg width="15" height="14" viewBox="0 0 15 14" fill="none" xmlns="http://www.w3.org/2000/svg">
<rect x="0.5" y="0.5" width="14" height="13" rx="1.5" stroke="#808080" style="stroke:#808080;stroke:color(display-p3 0.5020 0.5020 0.5020);stroke-opacity:1;"/>
<path d="M6.53906 10.1016C6.29167 10.1016 6.10286 10.0339 5.97266 9.89844C5.84505 9.76302 5.78125 9.57682 5.78125 9.33984V8.07031H4.64062C4.48698 8.07031 4.35938 8.02865 4.25781 7.94531C4.15885 7.85938 4.10938 7.74609 4.10938 7.60547C4.10938 7.51693 4.1276 7.4401 4.16406 7.375C4.20312 7.3099 4.26172 7.23828 4.33984 7.16016L7.07031 4.41406C7.13281 4.35156 7.20052 4.30339 7.27344 4.26953C7.34635 4.23307 7.42188 4.21484 7.5 4.21484C7.58073 4.21484 7.65625 4.23307 7.72656 4.26953C7.79948 4.30339 7.86719 4.35156 7.92969 4.41406L10.6602 7.16016C10.7357 7.23828 10.793 7.3099 10.832 7.375C10.8711 7.4401 10.8906 7.51693 10.8906 7.60547C10.8906 7.74609 10.8398 7.85938 10.7383 7.94531C10.6393 8.02865 10.513 8.07031 10.3594 8.07031H9.21875V9.33984C9.21875 9.57682 9.15365 9.76302 9.02344 9.89844C8.89323 10.0339 8.70573 10.1016 8.46094 10.1016H6.53906ZM6.71875 9.35156H8.27734C8.32422 9.35156 8.36198 9.33724 8.39062 9.30859C8.42188 9.27734 8.4375 9.23828 8.4375 9.19141V7.50391C8.4375 7.4362 8.47266 7.40234 8.54297 7.40234H9.80078C9.8138 7.40234 9.82031 7.39714 9.82031 7.38672C9.82031 7.37891 9.81641 7.37109 9.80859 7.36328L7.53516 5.09766C7.52474 5.08724 7.51302 5.08203 7.5 5.08203C7.48438 5.08203 7.47266 5.08724 7.46484 5.09766L5.19141 7.36328C5.18359 7.37109 5.17969 7.37891 5.17969 7.38672C5.17969 7.39714 5.1875 7.40234 5.20312 7.40234H6.45703C6.52734 7.40234 6.5625 7.4362 6.5625 7.50391V9.19141C6.5625 9.24089 6.57682 9.27995 6.60547 9.30859C6.63411 9.33724 6.67188 9.35156 6.71875 9.35156Z" fill="#808080" style="fill:#808080;fill:color(display-p3 0.5020 0.5020 0.5020);fill-opacity:1;"/>
</svg>
