<svg width="13" height="14" viewBox="0 0 13 14" fill="none" xmlns="http://www.w3.org/2000/svg">
<rect x="0.5" y="0.5" width="12" height="13" rx="1.5" stroke="#808080" style="stroke:#808080;stroke:color(display-p3 0.5020 0.5020 0.5020);stroke-opacity:1;"/>
<path d="M6.61719 10.1406C6.08333 10.1406 5.6224 10.0208 5.23438 9.78125C4.84896 9.54167 4.55078 9.20182 4.33984 8.76172C4.13151 8.31901 4.02734 7.79427 4.02734 7.1875V7.17969C4.02734 6.57031 4.13151 6.04557 4.33984 5.60547C4.55078 5.16276 4.84896 4.82161 5.23438 4.58203C5.61979 4.34245 6.07943 4.22266 6.61328 4.22266C7.04036 4.22266 7.42578 4.30729 7.76953 4.47656C8.11328 4.64323 8.39323 4.875 8.60938 5.17188C8.82552 5.46615 8.95573 5.80469 9 6.1875L8.99609 6.21875H8.01172L8.00781 6.19922C7.96094 5.97786 7.8724 5.78516 7.74219 5.62109C7.61198 5.45443 7.45052 5.32552 7.25781 5.23438C7.0651 5.14062 6.85026 5.09375 6.61328 5.09375C6.29557 5.09375 6.01953 5.17839 5.78516 5.34766C5.55078 5.51693 5.36979 5.75781 5.24219 6.07031C5.11719 6.38021 5.05469 6.7487 5.05469 7.17578V7.18359C5.05469 7.61068 5.11719 7.98047 5.24219 8.29297C5.36979 8.60547 5.55078 8.84635 5.78516 9.01562C6.01953 9.1849 6.29688 9.26953 6.61719 9.26953C6.85677 9.26953 7.07161 9.22786 7.26172 9.14453C7.45443 9.0612 7.61458 8.94401 7.74219 8.79297C7.8724 8.63932 7.96094 8.45964 8.00781 8.25391L8.01562 8.23047H9V8.26172C8.95052 8.63672 8.81901 8.96484 8.60547 9.24609C8.39193 9.52734 8.11589 9.7474 7.77734 9.90625C7.4388 10.0625 7.05208 10.1406 6.61719 10.1406Z" fill="#808080" style="fill:#808080;fill:color(display-p3 0.5020 0.5020 0.5020);fill-opacity:1;"/>
</svg>
