<svg width="15" height="14" viewBox="0 0 15 14" fill="none" xmlns="http://www.w3.org/2000/svg">
<rect x="0.5" y="0.5" width="14" height="13" rx="1.5" stroke="#808080" style="stroke:#808080;stroke:color(display-p3 0.5020 0.5020 0.5020);stroke-opacity:1;"/>
<path d="M6.22266 10.0391C6.10807 10.0391 6.00781 9.99609 5.92188 9.91016L4.21094 8.23047C4.125 8.14453 4.08203 8.04036 4.08203 7.91797C4.08203 7.79557 4.125 7.69271 4.21094 7.60938L5.92188 5.92969C6.00781 5.84375 6.10807 5.80078 6.22266 5.80078C6.34505 5.80078 6.44271 5.83854 6.51562 5.91406C6.59115 5.98958 6.62891 6.08464 6.62891 6.19922C6.62891 6.26432 6.61719 6.32031 6.59375 6.36719C6.57031 6.41146 6.54036 6.45312 6.50391 6.49219L5.83594 7.13672L5.05469 7.77734L4.91406 7.55469L6.05469 7.5H9.69141C9.83724 7.5 9.9401 7.46875 10 7.40625C10.0625 7.34375 10.0938 7.23958 10.0938 7.09375V5.36719C10.0938 5.22396 10.0625 5.12109 10 5.05859C9.9401 4.99609 9.83724 4.96484 9.69141 4.96484H8.09766C7.97526 4.96484 7.8737 4.92448 7.79297 4.84375C7.71224 4.76302 7.67188 4.66536 7.67188 4.55078C7.67188 4.43359 7.71224 4.33464 7.79297 4.25391C7.8737 4.17057 7.97526 4.12891 8.09766 4.12891H9.71875C10.1406 4.12891 10.4453 4.22396 10.6328 4.41406C10.8229 4.60156 10.918 4.90625 10.918 5.32812V7.13672C10.918 7.55078 10.8229 7.85417 10.6328 8.04688C10.4453 8.23958 10.1406 8.33594 9.71875 8.33594H6.05469L4.91406 8.28125L5.05469 8.05859L5.83594 8.69922L6.50391 9.34375C6.54036 9.38021 6.57031 9.42318 6.59375 9.47266C6.61719 9.51953 6.62891 9.57422 6.62891 9.63672C6.62891 9.7513 6.59115 9.84766 6.51562 9.92578C6.44271 10.0013 6.34505 10.0391 6.22266 10.0391Z" fill="#808080" style="fill:#808080;fill:color(display-p3 0.5020 0.5020 0.5020);fill-opacity:1;"/>
</svg>
