<svg width="13" height="14" viewBox="0 0 13 14" fill="none" xmlns="http://www.w3.org/2000/svg">
<rect x="0.5" y="0.5" width="12" height="13" rx="1.5" stroke="#808080" style="stroke:#808080;stroke:color(display-p3 0.5020 0.5020 0.5020);stroke-opacity:1;"/>
<path d="M6.58203 10.1406C6.17318 10.1406 5.80599 10.0729 5.48047 9.9375C5.15495 9.79948 4.8763 9.60156 4.64453 9.34375C4.41536 9.08594 4.23958 8.77604 4.11719 8.41406C3.99479 8.04948 3.93359 7.63932 3.93359 7.18359V7.17578C3.93359 6.57422 4.04167 6.05339 4.25781 5.61328C4.47396 5.17057 4.77865 4.82812 5.17188 4.58594C5.56771 4.34375 6.03255 4.22266 6.56641 4.22266C7.0013 4.22266 7.38932 4.30078 7.73047 4.45703C8.07422 4.61068 8.35547 4.82682 8.57422 5.10547C8.79297 5.38151 8.93229 5.70312 8.99219 6.07031L9 6.10938H8L7.98828 6.07031C7.89714 5.76042 7.72786 5.52083 7.48047 5.35156C7.23307 5.17969 6.92839 5.09375 6.56641 5.09375C6.23828 5.09375 5.95312 5.17839 5.71094 5.34766C5.47135 5.51693 5.28646 5.75651 5.15625 6.06641C5.02604 6.3763 4.96094 6.74349 4.96094 7.16797V7.17578C4.96094 7.4987 4.9987 7.78906 5.07422 8.04688C5.14974 8.30469 5.25781 8.52474 5.39844 8.70703C5.54167 8.88932 5.71354 9.02865 5.91406 9.125C6.11719 9.22135 6.34505 9.26953 6.59766 9.26953C6.88411 9.26953 7.13542 9.21354 7.35156 9.10156C7.57031 8.98958 7.74089 8.83333 7.86328 8.63281C7.98828 8.43229 8.05339 8.19922 8.05859 7.93359V7.81641H6.70703V7.04688H9.04297V7.75C9.04297 8.11458 8.98568 8.44401 8.87109 8.73828C8.75651 9.03255 8.59115 9.28385 8.375 9.49219C8.16146 9.70052 7.90234 9.86068 7.59766 9.97266C7.29557 10.0846 6.95703 10.1406 6.58203 10.1406Z" fill="#808080" style="fill:#808080;fill:color(display-p3 0.5020 0.5020 0.5020);fill-opacity:1;"/>
</svg>
