<svg width="20" height="14" viewBox="0 0 20 14" fill="none" xmlns="http://www.w3.org/2000/svg">
<rect x="0.5" y="0.5" width="19" height="13" rx="1.5" stroke="#808080" style="stroke:#808080;stroke:color(display-p3 0.5020 0.5020 0.5020);stroke-opacity:1;"/>
<path d="M5.55078 10.0859C5.1263 10.0859 4.76172 9.99609 4.45703 9.81641C4.15495 9.63672 3.92188 9.38151 3.75781 9.05078C3.59375 8.72005 3.51172 8.32812 3.51172 7.875V7.87109C3.51172 7.42318 3.59245 7.03255 3.75391 6.69922C3.91797 6.36589 4.14974 6.10807 4.44922 5.92578C4.7487 5.74089 5.10026 5.64844 5.50391 5.64844C5.91016 5.64844 6.25911 5.73828 6.55078 5.91797C6.84505 6.09505 7.07161 6.34375 7.23047 6.66406C7.38932 6.98438 7.46875 7.35938 7.46875 7.78906V8.10938H4V7.45703H6.99219L6.53125 8.06641V7.67969C6.53125 7.39583 6.48828 7.16016 6.40234 6.97266C6.31641 6.78516 6.19661 6.64453 6.04297 6.55078C5.89193 6.45703 5.71615 6.41016 5.51562 6.41016C5.3151 6.41016 5.13672 6.45964 4.98047 6.55859C4.82682 6.65495 4.70443 6.79818 4.61328 6.98828C4.52474 7.17578 4.48047 7.40625 4.48047 7.67969V8.07031C4.48047 8.33333 4.52474 8.55859 4.61328 8.74609C4.70182 8.93099 4.82682 9.07422 4.98828 9.17578C5.15234 9.27474 5.34635 9.32422 5.57031 9.32422C5.74479 9.32422 5.89453 9.29948 6.01953 9.25C6.14714 9.19792 6.25 9.13672 6.32812 9.06641C6.40625 8.99349 6.46094 8.92448 6.49219 8.85938L6.50391 8.83203H7.42578L7.41797 8.86719C7.38411 9.00521 7.32161 9.14583 7.23047 9.28906C7.14193 9.42969 7.02083 9.5612 6.86719 9.68359C6.71615 9.80339 6.53125 9.90104 6.3125 9.97656C6.09375 10.0495 5.83984 10.0859 5.55078 10.0859ZM10.0547 10.0859C9.69271 10.0859 9.38021 10.0352 9.11719 9.93359C8.85677 9.82943 8.65104 9.6862 8.5 9.50391C8.34896 9.31901 8.25911 9.10547 8.23047 8.86328V8.85547H9.19531L9.19922 8.86328C9.2513 9.01172 9.34896 9.13281 9.49219 9.22656C9.63542 9.32031 9.82812 9.36719 10.0703 9.36719C10.2318 9.36719 10.3737 9.34505 10.4961 9.30078C10.6185 9.25391 10.7148 9.1901 10.7852 9.10938C10.8555 9.02865 10.8906 8.9349 10.8906 8.82812V8.82031C10.8906 8.69531 10.8398 8.59115 10.7383 8.50781C10.6367 8.42188 10.4688 8.35286 10.2344 8.30078L9.54297 8.14453C9.27214 8.08464 9.04818 8.0013 8.87109 7.89453C8.69401 7.78776 8.5612 7.65625 8.47266 7.5C8.38672 7.34375 8.34375 7.16146 8.34375 6.95312V6.94922C8.34375 6.69141 8.41536 6.46484 8.55859 6.26953C8.70443 6.07422 8.90625 5.92188 9.16406 5.8125C9.42188 5.70312 9.71875 5.64844 10.0547 5.64844C10.401 5.64844 10.6992 5.70052 10.9492 5.80469C11.1992 5.90885 11.3945 6.05208 11.5352 6.23438C11.6758 6.41667 11.7565 6.6237 11.7773 6.85547V6.86328H10.8633L10.8594 6.85156C10.8229 6.71615 10.7357 6.60156 10.5977 6.50781C10.4622 6.41146 10.2799 6.36328 10.0508 6.36328C9.90755 6.36328 9.77865 6.38542 9.66406 6.42969C9.55208 6.47396 9.46354 6.53646 9.39844 6.61719C9.33594 6.69531 9.30469 6.78776 9.30469 6.89453V6.89844C9.30469 6.98177 9.32552 7.05469 9.36719 7.11719C9.41146 7.17969 9.48047 7.23438 9.57422 7.28125C9.66797 7.32812 9.79167 7.36979 9.94531 7.40625L10.6367 7.55859C11.056 7.65234 11.3659 7.79167 11.5664 7.97656C11.7669 8.16146 11.8672 8.41016 11.8672 8.72266V8.73047C11.8672 9.0013 11.7891 9.23828 11.6328 9.44141C11.4766 9.64453 11.2617 9.80339 10.9883 9.91797C10.7148 10.0299 10.4036 10.0859 10.0547 10.0859ZM14.6797 10.0859C14.25 10.0859 13.8828 9.9974 13.5781 9.82031C13.2734 9.64323 13.0404 9.38802 12.8789 9.05469C12.7174 8.72135 12.6367 8.32292 12.6367 7.85938V7.85156C12.6367 7.39062 12.7174 6.99609 12.8789 6.66797C13.0404 6.33984 13.2734 6.08854 13.5781 5.91406C13.8828 5.73698 14.2487 5.64844 14.6758 5.64844C15.043 5.64844 15.3581 5.71224 15.6211 5.83984C15.8867 5.96484 16.0964 6.13932 16.25 6.36328C16.4062 6.58464 16.5026 6.84375 16.5391 7.14062V7.15625H15.6211L15.6172 7.14453C15.5729 6.9362 15.4714 6.76562 15.3125 6.63281C15.1562 6.5 14.9453 6.43359 14.6797 6.43359C14.4583 6.43359 14.2682 6.48958 14.1094 6.60156C13.9531 6.71354 13.8333 6.875 13.75 7.08594C13.6667 7.29688 13.625 7.55208 13.625 7.85156V7.85938C13.625 8.16146 13.6667 8.42057 13.75 8.63672C13.8359 8.85026 13.957 9.01432 14.1133 9.12891C14.2695 9.24089 14.4583 9.29688 14.6797 9.29688C14.9323 9.29688 15.1354 9.23958 15.2891 9.125C15.4453 9.01042 15.5534 8.84115 15.6133 8.61719L15.6211 8.60156L16.5352 8.59766L16.5312 8.63281C16.4844 8.92188 16.3828 9.17578 16.2266 9.39453C16.0729 9.61328 15.8672 9.78385 15.6094 9.90625C15.3516 10.026 15.0417 10.0859 14.6797 10.0859Z" fill="#808080" style="fill:#808080;fill:color(display-p3 0.5020 0.5020 0.5020);fill-opacity:1;"/>
</svg>
