<svg width="14" height="14" viewBox="0 0 14 14" fill="none" xmlns="http://www.w3.org/2000/svg">
<rect x="0.5" y="0.5" width="13" height="13" rx="1.5" stroke="#808080" style="stroke:#808080;stroke:color(display-p3 0.5020 0.5020 0.5020);stroke-opacity:1;"/>
<path d="M5.75391 6.61328L5.24609 6.60938C5.02734 6.60938 4.82812 6.55729 4.64844 6.45312C4.46875 6.34896 4.32552 6.20833 4.21875 6.03125C4.11198 5.85156 4.05859 5.65234 4.05859 5.43359C4.05859 5.21484 4.11198 5.01562 4.21875 4.83594C4.32552 4.65625 4.46875 4.51302 4.64844 4.40625C4.82812 4.29948 5.02734 4.24609 5.24609 4.24609C5.46484 4.24609 5.66276 4.29948 5.83984 4.40625C6.01953 4.51302 6.16276 4.65755 6.26953 4.83984C6.3763 5.01953 6.42969 5.21745 6.42969 5.43359V5.93359H7.56641V5.43359C7.56641 5.21745 7.61979 5.01953 7.72656 4.83984C7.83594 4.65755 7.97917 4.51302 8.15625 4.40625C8.33594 4.29948 8.53385 4.24609 8.75 4.24609C8.97135 4.24609 9.17188 4.29948 9.35156 4.40625C9.53125 4.51302 9.67318 4.65625 9.77734 4.83594C9.88411 5.01562 9.9375 5.21484 9.9375 5.43359C9.9375 5.65234 9.88411 5.85156 9.77734 6.03125C9.67318 6.20833 9.53125 6.34896 9.35156 6.45312C9.17188 6.55729 8.97266 6.60938 8.75391 6.60938L8.24609 6.61328V7.75391L8.75391 7.75781C8.97266 7.75781 9.17188 7.8099 9.35156 7.91406C9.53125 8.01823 9.67318 8.15885 9.77734 8.33594C9.88411 8.51302 9.9375 8.71224 9.9375 8.93359C9.9375 9.14974 9.88411 9.34896 9.77734 9.53125C9.67318 9.71094 9.53125 9.85417 9.35156 9.96094C9.17188 10.0677 8.97135 10.1211 8.75 10.1211C8.53385 10.1211 8.33594 10.0677 8.15625 9.96094C7.97917 9.85156 7.83594 9.70703 7.72656 9.52734C7.61979 9.34766 7.56641 9.14974 7.56641 8.93359V8.43359H6.42969V8.93359C6.42969 9.14974 6.3763 9.34766 6.26953 9.52734C6.16276 9.70703 6.01953 9.85156 5.83984 9.96094C5.66276 10.0677 5.46484 10.1211 5.24609 10.1211C5.02734 10.1211 4.82812 10.0677 4.64844 9.96094C4.46875 9.85417 4.32552 9.71094 4.21875 9.53125C4.11198 9.34896 4.05859 9.14974 4.05859 8.93359C4.05859 8.71224 4.11198 8.51302 4.21875 8.33594C4.32552 8.15885 4.46875 8.01823 4.64844 7.91406C4.82812 7.8099 5.02734 7.75781 5.24609 7.75781L5.75391 7.75391V6.61328ZM5.26172 5.94141H5.75V5.44922C5.75 5.30599 5.69922 5.1849 5.59766 5.08594C5.4987 4.98438 5.38151 4.93359 5.24609 4.93359C5.10807 4.93359 4.98958 4.98307 4.89062 5.08203C4.79167 5.17839 4.74219 5.29557 4.74219 5.43359C4.74219 5.57422 4.79297 5.69401 4.89453 5.79297C4.99609 5.89193 5.11849 5.94141 5.26172 5.94141ZM8.73828 5.94141C8.88151 5.94141 9.0026 5.89193 9.10156 5.79297C9.20312 5.69401 9.25391 5.57422 9.25391 5.43359C9.25391 5.29557 9.20443 5.17839 9.10547 5.08203C9.00651 4.98307 8.88802 4.93359 8.75 4.93359C8.61458 4.93359 8.4974 4.98438 8.39844 5.08594C8.29948 5.1849 8.25 5.30599 8.25 5.44922V5.94141H8.73828ZM6.42969 7.75391H7.56641V6.61328H6.42969V7.75391ZM5.26172 8.42188C5.11849 8.42188 4.99609 8.47135 4.89453 8.57031C4.79297 8.66927 4.74219 8.78906 4.74219 8.92969C4.74219 9.06771 4.79167 9.1862 4.89062 9.28516C4.98958 9.38411 5.10807 9.43359 5.24609 9.43359C5.38151 9.43359 5.4987 9.38281 5.59766 9.28125C5.69922 9.17969 5.75 9.05859 5.75 8.91797V8.42188H5.26172ZM8.73828 8.42188H8.25V8.91797C8.25 9.05859 8.29948 9.17969 8.39844 9.28125C8.4974 9.38281 8.61458 9.43359 8.75 9.43359C8.88802 9.43359 9.00651 9.38411 9.10547 9.28516C9.20443 9.1862 9.25391 9.06771 9.25391 8.92969C9.25391 8.78906 9.20312 8.66927 9.10156 8.57031C9.0026 8.47135 8.88151 8.42188 8.73828 8.42188Z" fill="#808080" style="fill:#808080;fill:color(display-p3 0.5020 0.5020 0.5020);fill-opacity:1;"/>
</svg>
