<svg width="13" height="14" viewBox="0 0 13 14" fill="none" xmlns="http://www.w3.org/2000/svg">
<rect x="0.5" y="0.5" width="12" height="13" rx="1.5" stroke="#808080" style="stroke:#808080;stroke:color(display-p3 0.5020 0.5020 0.5020);stroke-opacity:1;"/>
<path d="M6.50781 10.1406C6.07031 10.1406 5.6901 10.0729 5.36719 9.9375C5.04688 9.80208 4.79427 9.61328 4.60938 9.37109C4.42448 9.12891 4.32031 8.84635 4.29688 8.52344L4.29297 8.46875H5.26953L5.27344 8.50781C5.28906 8.66667 5.35156 8.80469 5.46094 8.92188C5.57292 9.03906 5.72135 9.13151 5.90625 9.19922C6.09115 9.26432 6.30208 9.29688 6.53906 9.29688C6.76562 9.29688 6.96615 9.26172 7.14062 9.19141C7.3151 9.12109 7.45182 9.02474 7.55078 8.90234C7.64974 8.77734 7.69922 8.63411 7.69922 8.47266V8.46875C7.69922 8.26562 7.61979 8.10026 7.46094 7.97266C7.30208 7.84245 7.04036 7.73828 6.67578 7.66016L6.07031 7.53516C5.49219 7.41276 5.07161 7.21745 4.80859 6.94922C4.54818 6.67839 4.41797 6.33333 4.41797 5.91406V5.91016C4.41797 5.57422 4.50651 5.27995 4.68359 5.02734C4.86328 4.77474 5.10938 4.57812 5.42188 4.4375C5.73698 4.29427 6.09766 4.22266 6.50391 4.22266C6.92057 4.22266 7.28125 4.29297 7.58594 4.43359C7.89062 4.57161 8.13021 4.76042 8.30469 5C8.47917 5.23958 8.57682 5.51042 8.59766 5.8125L8.60156 5.86328H7.64062L7.63281 5.81641C7.60938 5.66797 7.54818 5.53906 7.44922 5.42969C7.35286 5.31771 7.22396 5.22917 7.0625 5.16406C6.90104 5.09896 6.71224 5.06641 6.49609 5.06641C6.29036 5.06641 6.10677 5.09896 5.94531 5.16406C5.78385 5.22656 5.65625 5.3151 5.5625 5.42969C5.47135 5.54427 5.42578 5.68229 5.42578 5.84375V5.84766C5.42578 6.04557 5.5026 6.20964 5.65625 6.33984C5.8125 6.47005 6.06641 6.57161 6.41797 6.64453L7.02344 6.77344C7.41927 6.85677 7.74089 6.96745 7.98828 7.10547C8.23568 7.24349 8.41667 7.41536 8.53125 7.62109C8.64844 7.82422 8.70703 8.06901 8.70703 8.35547V8.35938C8.70703 8.72396 8.61719 9.03906 8.4375 9.30469C8.26042 9.57031 8.00651 9.77604 7.67578 9.92188C7.34766 10.0677 6.95833 10.1406 6.50781 10.1406Z" fill="#808080" style="fill:#808080;fill:color(display-p3 0.5020 0.5020 0.5020);fill-opacity:1;"/>
</svg>
