<svg width="13" height="14" viewBox="0 0 13 14" fill="none" xmlns="http://www.w3.org/2000/svg">
<rect x="0.5" y="0.5" width="12" height="13" rx="1.5" stroke="#808080" style="stroke:#808080;stroke:color(display-p3 0.5020 0.5020 0.5020);stroke-opacity:1;"/>
<path d="M6.5 10.1406C5.94792 10.1406 5.47266 10.0208 5.07422 9.78125C4.67839 9.53906 4.3724 9.19661 4.15625 8.75391C3.9401 8.3112 3.83203 7.78776 3.83203 7.18359V7.17578C3.83203 6.56901 3.9401 6.04557 4.15625 5.60547C4.375 5.16276 4.68359 4.82161 5.08203 4.58203C5.48307 4.34245 5.95573 4.22266 6.5 4.22266C7.04688 4.22266 7.51953 4.34245 7.91797 4.58203C8.31641 4.82161 8.6237 5.16276 8.83984 5.60547C9.05599 6.04818 9.16406 6.57161 9.16406 7.17578V7.18359C9.16406 7.78776 9.05599 8.3112 8.83984 8.75391C8.6263 9.19661 8.32031 9.53906 7.92188 9.78125C7.52344 10.0208 7.04948 10.1406 6.5 10.1406ZM6.5 9.26953C6.83594 9.26953 7.1263 9.18359 7.37109 9.01172C7.61589 8.83984 7.80469 8.59766 7.9375 8.28516C8.07292 7.97266 8.14062 7.60547 8.14062 7.18359V7.17578C8.14062 6.7513 8.07292 6.38411 7.9375 6.07422C7.80469 5.76172 7.61589 5.52083 7.37109 5.35156C7.1263 5.17969 6.83594 5.09375 6.5 5.09375C6.16667 5.09375 5.8763 5.17969 5.62891 5.35156C5.38411 5.52083 5.19401 5.76172 5.05859 6.07422C4.92578 6.38411 4.85938 6.7513 4.85938 7.17578V7.18359C4.85938 7.60547 4.92448 7.97266 5.05469 8.28516C5.1875 8.59766 5.3763 8.83984 5.62109 9.01172C5.86849 9.18359 6.16146 9.26953 6.5 9.26953ZM7.96875 10.5859L6.21875 8.23438H7.20312L8.95312 10.5859H7.96875Z" fill="#808080" style="fill:#808080;fill:color(display-p3 0.5020 0.5020 0.5020);fill-opacity:1;"/>
</svg>
