<svg width="13" height="14" viewBox="0 0 13 14" fill="none" xmlns="http://www.w3.org/2000/svg">
<rect x="0.5" y="0.5" width="12" height="13" rx="1.5" stroke="#808080" style="stroke:#808080;stroke:color(display-p3 0.5020 0.5020 0.5020);stroke-opacity:1;"/>
<path d="M6.5 10.1406C6.02604 10.1406 5.61589 10.0534 5.26953 9.87891C4.92318 9.70443 4.65495 9.46094 4.46484 9.14844C4.27734 8.83594 4.18359 8.47266 4.18359 8.05859V4.36328H5.1875V7.97656C5.1875 8.23438 5.23828 8.46094 5.33984 8.65625C5.44401 8.84896 5.59375 9 5.78906 9.10938C5.98438 9.21615 6.22266 9.26953 6.50391 9.26953C6.78255 9.26953 7.01953 9.21615 7.21484 9.10938C7.41016 9 7.55859 8.84896 7.66016 8.65625C7.76172 8.46094 7.8125 8.23438 7.8125 7.97656V4.36328H8.81641V8.05859C8.81641 8.47266 8.72266 8.83594 8.53516 9.14844C8.34766 9.46094 8.08073 9.70443 7.73438 9.87891C7.39062 10.0534 6.97917 10.1406 6.5 10.1406Z" fill="#808080" style="fill:#808080;fill:color(display-p3 0.5020 0.5020 0.5020);fill-opacity:1;"/>
</svg>
