<svg width="13" height="14" viewBox="0 0 13 14" fill="none" xmlns="http://www.w3.org/2000/svg">
<rect x="0.5" y="0.5" width="12" height="13" rx="1.5" stroke="#808080" style="stroke:#808080;stroke:color(display-p3 0.5020 0.5020 0.5020);stroke-opacity:1;"/>
<path d="M5.05859 8.13672V7.32422H6.55859C6.92057 7.32422 7.20182 7.23177 7.40234 7.04688C7.60286 6.85938 7.70312 6.59635 7.70312 6.25781V6.25C7.70312 5.90885 7.60286 5.64583 7.40234 5.46094C7.20182 5.27604 6.92057 5.18359 6.55859 5.18359H5.05859V4.36328H6.80469C7.1875 4.36328 7.52214 4.44141 7.80859 4.59766C8.09505 4.75391 8.31901 4.97396 8.48047 5.25781C8.64193 5.53906 8.72266 5.86849 8.72266 6.24609V6.25391C8.72266 6.62891 8.64193 6.95833 8.48047 7.24219C8.31901 7.52344 8.09505 7.74349 7.80859 7.90234C7.52214 8.05859 7.1875 8.13672 6.80469 8.13672H5.05859ZM4.55469 10V4.36328H5.5625V10H4.55469Z" fill="#808080" style="fill:#808080;fill:color(display-p3 0.5020 0.5020 0.5020);fill-opacity:1;"/>
</svg>
