<svg width="13" height="14" viewBox="0 0 13 14" fill="none" xmlns="http://www.w3.org/2000/svg">
<rect x="0.5" y="0.5" width="12" height="13" rx="1.5" stroke="#808080" style="stroke:#808080;stroke:color(display-p3 0.5020 0.5020 0.5020);stroke-opacity:1;"/>
<path d="M6.28516 10.1406C6.01172 10.1406 5.76693 10.1016 5.55078 10.0234C5.33464 9.94531 5.14974 9.83464 4.99609 9.69141C4.84505 9.54818 4.72656 9.3776 4.64062 9.17969C4.55729 8.97917 4.51042 8.75781 4.5 8.51562L4.49609 8.47266H5.48047L5.48438 8.50391C5.49479 8.64714 5.52995 8.77604 5.58984 8.89062C5.65234 9.0026 5.74089 9.09245 5.85547 9.16016C5.97005 9.22526 6.10938 9.25781 6.27344 9.25781C6.54688 9.25781 6.75391 9.17839 6.89453 9.01953C7.03776 8.85807 7.10938 8.625 7.10938 8.32031V4.36328H8.11328V8.32812C8.11328 8.70833 8.04167 9.03385 7.89844 9.30469C7.75521 9.57552 7.54688 9.78255 7.27344 9.92578C7 10.069 6.67057 10.1406 6.28516 10.1406Z" fill="#808080" style="fill:#808080;fill:color(display-p3 0.5020 0.5020 0.5020);fill-opacity:1;"/>
</svg>
