<svg width="13" height="14" viewBox="0 0 13 14" fill="none" xmlns="http://www.w3.org/2000/svg">
<rect x="0.5" y="0.5" width="12" height="13" rx="1.5" stroke="#808080" style="stroke:#808080;stroke:color(display-p3 0.5020 0.5020 0.5020);stroke-opacity:1;"/>
<path d="M4.47656 10V4.36328H6.75391C7.15755 4.36328 7.50391 4.4349 7.79297 4.57812C8.08203 4.72135 8.30339 4.92318 8.45703 5.18359C8.61068 5.44401 8.6875 5.75391 8.6875 6.11328V6.12109C8.6875 6.49349 8.59375 6.82422 8.40625 7.11328C8.22135 7.39974 7.96224 7.60286 7.62891 7.72266L8.85938 10H7.71094L6.60156 7.87891C6.59635 7.87891 6.58854 7.87891 6.57812 7.87891C6.56771 7.87891 6.55859 7.87891 6.55078 7.87891H5.48438V10H4.47656ZM5.48438 7.10547H6.64844C6.96875 7.10547 7.21745 7.02083 7.39453 6.85156C7.57161 6.68229 7.66016 6.44661 7.66016 6.14453V6.13672C7.66016 5.84245 7.56771 5.60938 7.38281 5.4375C7.20052 5.26302 6.94922 5.17578 6.62891 5.17578H5.48438V7.10547Z" fill="#808080" style="fill:#808080;fill:color(display-p3 0.5020 0.5020 0.5020);fill-opacity:1;"/>
</svg>
