<svg width="13" height="14" viewBox="0 0 13 14" fill="none" xmlns="http://www.w3.org/2000/svg">
<rect x="0.5" y="0.5" width="12" height="13" rx="1.5" stroke="#808080" style="stroke:#808080;stroke:color(display-p3 0.5020 0.5020 0.5020);stroke-opacity:1;"/>
<path d="M5.64844 11.4883L5.98828 9.14062H6.98828L6.3125 11.4883H5.64844ZM6.5 7.17578C6.32292 7.17578 6.17448 7.11719 6.05469 7C5.9375 6.88021 5.87891 6.73438 5.87891 6.5625C5.87891 6.38802 5.9375 6.24219 6.05469 6.125C6.17448 6.00521 6.32292 5.94531 6.5 5.94531C6.67969 5.94531 6.82812 6.00521 6.94531 6.125C7.0625 6.24219 7.12109 6.38802 7.12109 6.5625C7.12109 6.73438 7.0625 6.88021 6.94531 7C6.82812 7.11719 6.67969 7.17578 6.5 7.17578Z" fill="#808080" style="fill:#808080;fill:color(display-p3 0.5020 0.5020 0.5020);fill-opacity:1;"/>
</svg>
