<svg width="31" height="14" viewBox="0 0 31 14" fill="none" xmlns="http://www.w3.org/2000/svg">
<rect x="0.5" y="0.5" width="30" height="13" rx="1.5" stroke="#808080" style="stroke:#808080;stroke:color(display-p3 0.5020 0.5020 0.5020);stroke-opacity:1;"/>
<path d="M3.96875 10V5.73047H4.94141V6.38672H5.00781C5.08073 6.15755 5.21094 5.97917 5.39844 5.85156C5.58854 5.72396 5.82422 5.66016 6.10547 5.66016C6.17839 5.66016 6.25 5.66536 6.32031 5.67578C6.39323 5.68359 6.45312 5.69401 6.5 5.70703V6.57812C6.42188 6.5599 6.34245 6.54688 6.26172 6.53906C6.18359 6.52865 6.10156 6.52344 6.01562 6.52344C5.79948 6.52344 5.61068 6.5638 5.44922 6.64453C5.28776 6.72526 5.16276 6.84115 5.07422 6.99219C4.98568 7.14062 4.94141 7.31641 4.94141 7.51953V10H3.96875ZM9.01562 10.0859C8.59115 10.0859 8.22656 9.99609 7.92188 9.81641C7.61979 9.63672 7.38672 9.38151 7.22266 9.05078C7.05859 8.72005 6.97656 8.32812 6.97656 7.875V7.87109C6.97656 7.42318 7.05729 7.03255 7.21875 6.69922C7.38281 6.36589 7.61458 6.10807 7.91406 5.92578C8.21354 5.74089 8.5651 5.64844 8.96875 5.64844C9.375 5.64844 9.72396 5.73828 10.0156 5.91797C10.3099 6.09505 10.5365 6.34375 10.6953 6.66406C10.8542 6.98438 10.9336 7.35938 10.9336 7.78906V8.10938H7.46484V7.45703H10.457L9.99609 8.06641V7.67969C9.99609 7.39583 9.95312 7.16016 9.86719 6.97266C9.78125 6.78516 9.66146 6.64453 9.50781 6.55078C9.35677 6.45703 9.18099 6.41016 8.98047 6.41016C8.77995 6.41016 8.60156 6.45964 8.44531 6.55859C8.29167 6.65495 8.16927 6.79818 8.07812 6.98828C7.98958 7.17578 7.94531 7.40625 7.94531 7.67969V8.07031C7.94531 8.33333 7.98958 8.55859 8.07812 8.74609C8.16667 8.93099 8.29167 9.07422 8.45312 9.17578C8.61719 9.27474 8.8112 9.32422 9.03516 9.32422C9.20964 9.32422 9.35938 9.29948 9.48438 9.25C9.61198 9.19792 9.71484 9.13672 9.79297 9.06641C9.87109 8.99349 9.92578 8.92448 9.95703 8.85938L9.96875 8.83203H10.8906L10.8828 8.86719C10.849 9.00521 10.7865 9.14583 10.6953 9.28906C10.6068 9.42969 10.4857 9.5612 10.332 9.68359C10.181 9.80339 9.99609 9.90104 9.77734 9.97656C9.55859 10.0495 9.30469 10.0859 9.01562 10.0859ZM13.5859 10.0195C13.0964 10.0195 12.7435 9.92969 12.5273 9.75C12.3112 9.57031 12.2031 9.27604 12.2031 8.86719V6.48438H11.5391V5.73047H12.2031V4.68359H13.1914V5.73047H14.0898V6.48438H13.1914V8.63672C13.1914 8.84766 13.2357 9.0026 13.3242 9.10156C13.4154 9.19792 13.5612 9.24609 13.7617 9.24609C13.832 9.24609 13.8893 9.24479 13.9336 9.24219C13.9805 9.23698 14.0326 9.23177 14.0898 9.22656V9.97656C14.0221 9.98958 13.944 10 13.8555 10.0078C13.7695 10.0156 13.6797 10.0195 13.5859 10.0195ZM16.4766 10.0859C16.1589 10.0859 15.8919 10.0247 15.6758 9.90234C15.4596 9.77734 15.2969 9.59635 15.1875 9.35938C15.0781 9.11979 15.0234 8.83073 15.0234 8.49219V5.73047H15.9961V8.26953C15.9961 8.60026 16.0612 8.84896 16.1914 9.01562C16.3216 9.18229 16.5339 9.26562 16.8281 9.26562C16.9844 9.26562 17.1224 9.24219 17.2422 9.19531C17.3646 9.14583 17.4661 9.07552 17.5469 8.98438C17.6276 8.89323 17.6888 8.78385 17.7305 8.65625C17.7721 8.52604 17.793 8.38021 17.793 8.21875V5.73047H18.7656V10H17.793V9.35156H17.7266C17.6615 9.5026 17.5703 9.63411 17.4531 9.74609C17.3359 9.85547 17.1953 9.9401 17.0312 10C16.8672 10.0573 16.6823 10.0859 16.4766 10.0859ZM19.9531 10V5.73047H20.9258V6.38672H20.9922C21.0651 6.15755 21.1953 5.97917 21.3828 5.85156C21.5729 5.72396 21.8086 5.66016 22.0898 5.66016C22.1628 5.66016 22.2344 5.66536 22.3047 5.67578C22.3776 5.68359 22.4375 5.69401 22.4844 5.70703V6.57812C22.4062 6.5599 22.3268 6.54688 22.2461 6.53906C22.168 6.52865 22.0859 6.52344 22 6.52344C21.7839 6.52344 21.5951 6.5638 21.4336 6.64453C21.2721 6.72526 21.1471 6.84115 21.0586 6.99219C20.9701 7.14062 20.9258 7.31641 20.9258 7.51953V10H19.9531ZM23.3281 10V5.73047H24.3008V6.38672H24.3672C24.4688 6.15495 24.6224 5.97396 24.8281 5.84375C25.0339 5.71354 25.2904 5.64844 25.5977 5.64844C26.0742 5.64844 26.4388 5.78646 26.6914 6.0625C26.944 6.33854 27.0703 6.73047 27.0703 7.23828V10H26.0977V7.46484C26.0977 7.13151 26.0273 6.88151 25.8867 6.71484C25.7487 6.54818 25.5326 6.46484 25.2383 6.46484C25.0456 6.46484 24.8789 6.50781 24.7383 6.59375C24.5977 6.67969 24.4896 6.80078 24.4141 6.95703C24.3385 7.11328 24.3008 7.29818 24.3008 7.51172V10H23.3281Z" fill="#808080" style="fill:#808080;fill:color(display-p3 0.5020 0.5020 0.5020);fill-opacity:1;"/>
</svg>
