<svg width="31" height="14" viewBox="0 0 31 14" fill="none" xmlns="http://www.w3.org/2000/svg">
<rect x="0.5" y="0.5" width="30" height="13" rx="1.5" stroke="#808080" style="stroke:#808080;stroke:color(display-p3 0.5020 0.5020 0.5020);stroke-opacity:1;"/>
<path d="M5.32812 10.0703C4.97396 10.0703 4.66536 9.98177 4.40234 9.80469C4.13932 9.625 3.9362 9.36979 3.79297 9.03906C3.64974 8.70833 3.57812 8.31901 3.57812 7.87109V7.86328C3.57812 7.41016 3.64844 7.01953 3.78906 6.69141C3.93229 6.36068 4.13411 6.10677 4.39453 5.92969C4.65755 5.75 4.96875 5.66016 5.32812 5.66016C5.52344 5.66016 5.70573 5.69141 5.875 5.75391C6.04427 5.8138 6.19271 5.89974 6.32031 6.01172C6.45052 6.1237 6.55208 6.25651 6.625 6.41016H6.69531V4.07812H7.66406V10H6.69531V9.33203H6.625C6.54688 9.48568 6.44401 9.61849 6.31641 9.73047C6.19141 9.83984 6.04557 9.92448 5.87891 9.98438C5.71224 10.0417 5.52865 10.0703 5.32812 10.0703ZM5.63281 9.25C5.85417 9.25 6.04427 9.19531 6.20312 9.08594C6.36458 8.97396 6.48828 8.8151 6.57422 8.60938C6.66276 8.40104 6.70703 8.15495 6.70703 7.87109V7.86328C6.70703 7.57682 6.66276 7.33073 6.57422 7.125C6.48828 6.91927 6.36458 6.76042 6.20312 6.64844C6.04427 6.53646 5.85417 6.48047 5.63281 6.48047C5.41406 6.48047 5.22396 6.53646 5.0625 6.64844C4.90365 6.75781 4.78125 6.91667 4.69531 7.125C4.60938 7.33073 4.56641 7.57682 4.56641 7.86328V7.87109C4.56641 8.15755 4.60938 8.40365 4.69531 8.60938C4.78125 8.8151 4.90365 8.97396 5.0625 9.08594C5.22135 9.19531 5.41146 9.25 5.63281 9.25ZM10.7188 10.0859C10.2943 10.0859 9.92969 9.99609 9.625 9.81641C9.32292 9.63672 9.08984 9.38151 8.92578 9.05078C8.76172 8.72005 8.67969 8.32812 8.67969 7.875V7.87109C8.67969 7.42318 8.76042 7.03255 8.92188 6.69922C9.08594 6.36589 9.31771 6.10807 9.61719 5.92578C9.91667 5.74089 10.2682 5.64844 10.6719 5.64844C11.0781 5.64844 11.4271 5.73828 11.7188 5.91797C12.013 6.09505 12.2396 6.34375 12.3984 6.66406C12.5573 6.98438 12.6367 7.35938 12.6367 7.78906V8.10938H9.16797V7.45703H12.1602L11.6992 8.06641V7.67969C11.6992 7.39583 11.6562 7.16016 11.5703 6.97266C11.4844 6.78516 11.3646 6.64453 11.2109 6.55078C11.0599 6.45703 10.8841 6.41016 10.6836 6.41016C10.4831 6.41016 10.3047 6.45964 10.1484 6.55859C9.99479 6.65495 9.8724 6.79818 9.78125 6.98828C9.69271 7.17578 9.64844 7.40625 9.64844 7.67969V8.07031C9.64844 8.33333 9.69271 8.55859 9.78125 8.74609C9.86979 8.93099 9.99479 9.07422 10.1562 9.17578C10.3203 9.27474 10.5143 9.32422 10.7383 9.32422C10.9128 9.32422 11.0625 9.29948 11.1875 9.25C11.3151 9.19792 11.418 9.13672 11.4961 9.06641C11.5742 8.99349 11.6289 8.92448 11.6602 8.85938L11.6719 8.83203H12.5938L12.5859 8.86719C12.5521 9.00521 12.4896 9.14583 12.3984 9.28906C12.3099 9.42969 12.1888 9.5612 12.0352 9.68359C11.8841 9.80339 11.6992 9.90104 11.4805 9.97656C11.2617 10.0495 11.0078 10.0859 10.7188 10.0859ZM13.6484 10V4.07812H14.6211V10H13.6484ZM17.6719 10.0859C17.2474 10.0859 16.8828 9.99609 16.5781 9.81641C16.276 9.63672 16.043 9.38151 15.8789 9.05078C15.7148 8.72005 15.6328 8.32812 15.6328 7.875V7.87109C15.6328 7.42318 15.7135 7.03255 15.875 6.69922C16.0391 6.36589 16.2708 6.10807 16.5703 5.92578C16.8698 5.74089 17.2214 5.64844 17.625 5.64844C18.0312 5.64844 18.3802 5.73828 18.6719 5.91797C18.9661 6.09505 19.1927 6.34375 19.3516 6.66406C19.5104 6.98438 19.5898 7.35938 19.5898 7.78906V8.10938H16.1211V7.45703H19.1133L18.6523 8.06641V7.67969C18.6523 7.39583 18.6094 7.16016 18.5234 6.97266C18.4375 6.78516 18.3177 6.64453 18.1641 6.55078C18.013 6.45703 17.8372 6.41016 17.6367 6.41016C17.4362 6.41016 17.2578 6.45964 17.1016 6.55859C16.9479 6.65495 16.8255 6.79818 16.7344 6.98828C16.6458 7.17578 16.6016 7.40625 16.6016 7.67969V8.07031C16.6016 8.33333 16.6458 8.55859 16.7344 8.74609C16.8229 8.93099 16.9479 9.07422 17.1094 9.17578C17.2734 9.27474 17.4674 9.32422 17.6914 9.32422C17.8659 9.32422 18.0156 9.29948 18.1406 9.25C18.2682 9.19792 18.3711 9.13672 18.4492 9.06641C18.5273 8.99349 18.582 8.92448 18.6133 8.85938L18.625 8.83203H19.5469L19.5391 8.86719C19.5052 9.00521 19.4427 9.14583 19.3516 9.28906C19.263 9.42969 19.1419 9.5612 18.9883 9.68359C18.8372 9.80339 18.6523 9.90104 18.4336 9.97656C18.2148 10.0495 17.9609 10.0859 17.6719 10.0859ZM22.2422 10.0195C21.7526 10.0195 21.3997 9.92969 21.1836 9.75C20.9674 9.57031 20.8594 9.27604 20.8594 8.86719V6.48438H20.1953V5.73047H20.8594V4.68359H21.8477V5.73047H22.7461V6.48438H21.8477V8.63672C21.8477 8.84766 21.8919 9.0026 21.9805 9.10156C22.0716 9.19792 22.2174 9.24609 22.418 9.24609C22.4883 9.24609 22.5456 9.24479 22.5898 9.24219C22.6367 9.23698 22.6888 9.23177 22.7461 9.22656V9.97656C22.6784 9.98958 22.6003 10 22.5117 10.0078C22.4258 10.0156 22.3359 10.0195 22.2422 10.0195ZM25.5078 10.0859C25.0833 10.0859 24.7188 9.99609 24.4141 9.81641C24.112 9.63672 23.8789 9.38151 23.7148 9.05078C23.5508 8.72005 23.4688 8.32812 23.4688 7.875V7.87109C23.4688 7.42318 23.5495 7.03255 23.7109 6.69922C23.875 6.36589 24.1068 6.10807 24.4062 5.92578C24.7057 5.74089 25.0573 5.64844 25.4609 5.64844C25.8672 5.64844 26.2161 5.73828 26.5078 5.91797C26.8021 6.09505 27.0286 6.34375 27.1875 6.66406C27.3464 6.98438 27.4258 7.35938 27.4258 7.78906V8.10938H23.957V7.45703H26.9492L26.4883 8.06641V7.67969C26.4883 7.39583 26.4453 7.16016 26.3594 6.97266C26.2734 6.78516 26.1536 6.64453 26 6.55078C25.849 6.45703 25.6732 6.41016 25.4727 6.41016C25.2721 6.41016 25.0938 6.45964 24.9375 6.55859C24.7839 6.65495 24.6615 6.79818 24.5703 6.98828C24.4818 7.17578 24.4375 7.40625 24.4375 7.67969V8.07031C24.4375 8.33333 24.4818 8.55859 24.5703 8.74609C24.6589 8.93099 24.7839 9.07422 24.9453 9.17578C25.1094 9.27474 25.3034 9.32422 25.5273 9.32422C25.7018 9.32422 25.8516 9.29948 25.9766 9.25C26.1042 9.19792 26.207 9.13672 26.2852 9.06641C26.3633 8.99349 26.418 8.92448 26.4492 8.85938L26.4609 8.83203H27.3828L27.375 8.86719C27.3411 9.00521 27.2786 9.14583 27.1875 9.28906C27.099 9.42969 26.9779 9.5612 26.8242 9.68359C26.6732 9.80339 26.4883 9.90104 26.2695 9.97656C26.0508 10.0495 25.7969 10.0859 25.5078 10.0859Z" fill="#808080" style="fill:#808080;fill:color(display-p3 0.5020 0.5020 0.5020);fill-opacity:1;"/>
</svg>
