<svg xmlns="http://www.w3.org/2000/svg" xmlns:xlink="http://www.w3.org/1999/xlink" width="0" height="0" style="display:none;"><symbol viewBox="0 0 14 14" id="ue900-control--">
<rect x="0.5" y="0.5" width="13" height="13" rx="1.5" stroke="#808080" style="stroke:#808080;stroke:color(display-p3 0.5020 0.5020 0.5020);stroke-opacity:1;"/>
<path d="M4.32812 6.76953L6.64453 4.42578C6.7513 4.32161 6.87109 4.26953 7.00391 4.26953C7.13932 4.26953 7.25781 4.32161 7.35938 4.42578L9.67188 6.76953C9.75781 6.85547 9.80078 6.96094 9.80078 7.08594C9.80078 7.21094 9.75651 7.31771 9.66797 7.40625C9.58203 7.49219 9.47656 7.53516 9.35156 7.53516C9.22917 7.53516 9.11979 7.48828 9.02344 7.39453L6.85547 5.19141H7.15234L4.98047 7.39453C4.88411 7.48828 4.77474 7.53516 4.65234 7.53516C4.52474 7.53516 4.41667 7.49219 4.32812 7.40625C4.24219 7.31771 4.19922 7.21094 4.19922 7.08594C4.19922 6.96354 4.24219 6.85807 4.32812 6.76953Z" fill="#808080" style="fill:#808080;fill:color(display-p3 0.5020 0.5020 0.5020);fill-opacity:1;"/>
</symbol><symbol viewBox="0 0 14 14" id="ue901-command--">
<rect x="0.5" y="0.5" width="13" height="13" rx="1.5" stroke="#808080" style="stroke:#808080;stroke:color(display-p3 0.5020 0.5020 0.5020);stroke-opacity:1;"/>
<path d="M5.75391 6.61328L5.24609 6.60938C5.02734 6.60938 4.82812 6.55729 4.64844 6.45312C4.46875 6.34896 4.32552 6.20833 4.21875 6.03125C4.11198 5.85156 4.05859 5.65234 4.05859 5.43359C4.05859 5.21484 4.11198 5.01562 4.21875 4.83594C4.32552 4.65625 4.46875 4.51302 4.64844 4.40625C4.82812 4.29948 5.02734 4.24609 5.24609 4.24609C5.46484 4.24609 5.66276 4.29948 5.83984 4.40625C6.01953 4.51302 6.16276 4.65755 6.26953 4.83984C6.3763 5.01953 6.42969 5.21745 6.42969 5.43359V5.93359H7.56641V5.43359C7.56641 5.21745 7.61979 5.01953 7.72656 4.83984C7.83594 4.65755 7.97917 4.51302 8.15625 4.40625C8.33594 4.29948 8.53385 4.24609 8.75 4.24609C8.97135 4.24609 9.17188 4.29948 9.35156 4.40625C9.53125 4.51302 9.67318 4.65625 9.77734 4.83594C9.88411 5.01562 9.9375 5.21484 9.9375 5.43359C9.9375 5.65234 9.88411 5.85156 9.77734 6.03125C9.67318 6.20833 9.53125 6.34896 9.35156 6.45312C9.17188 6.55729 8.97266 6.60938 8.75391 6.60938L8.24609 6.61328V7.75391L8.75391 7.75781C8.97266 7.75781 9.17188 7.8099 9.35156 7.91406C9.53125 8.01823 9.67318 8.15885 9.77734 8.33594C9.88411 8.51302 9.9375 8.71224 9.9375 8.93359C9.9375 9.14974 9.88411 9.34896 9.77734 9.53125C9.67318 9.71094 9.53125 9.85417 9.35156 9.96094C9.17188 10.0677 8.97135 10.1211 8.75 10.1211C8.53385 10.1211 8.33594 10.0677 8.15625 9.96094C7.97917 9.85156 7.83594 9.70703 7.72656 9.52734C7.61979 9.34766 7.56641 9.14974 7.56641 8.93359V8.43359H6.42969V8.93359C6.42969 9.14974 6.3763 9.34766 6.26953 9.52734C6.16276 9.70703 6.01953 9.85156 5.83984 9.96094C5.66276 10.0677 5.46484 10.1211 5.24609 10.1211C5.02734 10.1211 4.82812 10.0677 4.64844 9.96094C4.46875 9.85417 4.32552 9.71094 4.21875 9.53125C4.11198 9.34896 4.05859 9.14974 4.05859 8.93359C4.05859 8.71224 4.11198 8.51302 4.21875 8.33594C4.32552 8.15885 4.46875 8.01823 4.64844 7.91406C4.82812 7.8099 5.02734 7.75781 5.24609 7.75781L5.75391 7.75391V6.61328ZM5.26172 5.94141H5.75V5.44922C5.75 5.30599 5.69922 5.1849 5.59766 5.08594C5.4987 4.98438 5.38151 4.93359 5.24609 4.93359C5.10807 4.93359 4.98958 4.98307 4.89062 5.08203C4.79167 5.17839 4.74219 5.29557 4.74219 5.43359C4.74219 5.57422 4.79297 5.69401 4.89453 5.79297C4.99609 5.89193 5.11849 5.94141 5.26172 5.94141ZM8.73828 5.94141C8.88151 5.94141 9.0026 5.89193 9.10156 5.79297C9.20312 5.69401 9.25391 5.57422 9.25391 5.43359C9.25391 5.29557 9.20443 5.17839 9.10547 5.08203C9.00651 4.98307 8.88802 4.93359 8.75 4.93359C8.61458 4.93359 8.4974 4.98438 8.39844 5.08594C8.29948 5.1849 8.25 5.30599 8.25 5.44922V5.94141H8.73828ZM6.42969 7.75391H7.56641V6.61328H6.42969V7.75391ZM5.26172 8.42188C5.11849 8.42188 4.99609 8.47135 4.89453 8.57031C4.79297 8.66927 4.74219 8.78906 4.74219 8.92969C4.74219 9.06771 4.79167 9.1862 4.89062 9.28516C4.98958 9.38411 5.10807 9.43359 5.24609 9.43359C5.38151 9.43359 5.4987 9.38281 5.59766 9.28125C5.69922 9.17969 5.75 9.05859 5.75 8.91797V8.42188H5.26172ZM8.73828 8.42188H8.25V8.91797C8.25 9.05859 8.29948 9.17969 8.39844 9.28125C8.4974 9.38281 8.61458 9.43359 8.75 9.43359C8.88802 9.43359 9.00651 9.38411 9.10547 9.28516C9.20443 9.1862 9.25391 9.06771 9.25391 8.92969C9.25391 8.78906 9.20312 8.66927 9.10156 8.57031C9.0026 8.47135 8.88151 8.42188 8.73828 8.42188Z" fill="#808080" style="fill:#808080;fill:color(display-p3 0.5020 0.5020 0.5020);fill-opacity:1;"/>
</symbol><symbol viewBox="0 0 14 14" id="ue902-option--">
<rect x="0.5" y="0.5" width="13" height="13" rx="1.5" stroke="#808080" style="stroke:#808080;stroke:color(display-p3 0.5020 0.5020 0.5020);stroke-opacity:1;"/>
<path d="M5.67578 4.375C5.83203 4.375 5.97135 4.41536 6.09375 4.49609C6.21615 4.57422 6.3112 4.6862 6.37891 4.83203L8.3125 9.04688C8.35156 9.125 8.41927 9.16406 8.51562 9.16406H9.75C9.86979 9.16406 9.97005 9.20443 10.0508 9.28516C10.1341 9.36589 10.1758 9.46354 10.1758 9.57812C10.1758 9.69271 10.1341 9.79036 10.0508 9.87109C9.96745 9.94922 9.86719 9.98828 9.75 9.98828H8.31641C8.14714 9.98828 8.00651 9.95312 7.89453 9.88281C7.78255 9.8099 7.6888 9.69271 7.61328 9.53125L5.67188 5.31641C5.65365 5.27474 5.6276 5.24479 5.59375 5.22656C5.5625 5.20833 5.52604 5.19922 5.48438 5.19922H4.24609C4.1263 5.19922 4.02474 5.16016 3.94141 5.08203C3.86068 5.0013 3.82031 4.90234 3.82031 4.78516C3.82031 4.67057 3.86068 4.57422 3.94141 4.49609C4.02474 4.41536 4.1263 4.375 4.24609 4.375H5.67578ZM9.75 4.375C9.86979 4.375 9.97005 4.41406 10.0508 4.49219C10.1315 4.57031 10.1719 4.66667 10.1719 4.78125C10.1719 4.89844 10.1315 4.99609 10.0508 5.07422C9.97005 5.15234 9.86979 5.19141 9.75 5.19141H7.91797C7.79818 5.19141 7.69792 5.15234 7.61719 5.07422C7.53646 4.99609 7.49609 4.89844 7.49609 4.78125C7.49609 4.66667 7.53646 4.57031 7.61719 4.49219C7.69792 4.41406 7.79818 4.375 7.91797 4.375H9.75Z" fill="#808080" style="fill:#808080;fill:color(display-p3 0.5020 0.5020 0.5020);fill-opacity:1;"/>
</symbol><symbol viewBox="0 0 19 14" id="ue903-tab--">
<rect x="0.5" y="0.5" width="18" height="13" rx="1.5" stroke="#808080" style="stroke:#808080;stroke:color(display-p3 0.5020 0.5020 0.5020);stroke-opacity:1;"/>
<path d="M5.33984 10.0195C4.85026 10.0195 4.4974 9.92969 4.28125 9.75C4.0651 9.57031 3.95703 9.27604 3.95703 8.86719V6.48438H3.29297V5.73047H3.95703V4.68359H4.94531V5.73047H5.84375V6.48438H4.94531V8.63672C4.94531 8.84766 4.98958 9.0026 5.07812 9.10156C5.16927 9.19792 5.3151 9.24609 5.51562 9.24609C5.58594 9.24609 5.64323 9.24479 5.6875 9.24219C5.73438 9.23698 5.78646 9.23177 5.84375 9.22656V9.97656C5.77604 9.98958 5.69792 10 5.60938 10.0078C5.52344 10.0156 5.43359 10.0195 5.33984 10.0195ZM7.98047 10.0703C7.71224 10.0703 7.47135 10.0182 7.25781 9.91406C7.04688 9.8099 6.88021 9.66276 6.75781 9.47266C6.63802 9.27995 6.57812 9.05339 6.57812 8.79297V8.78516C6.57812 8.53255 6.64062 8.3151 6.76562 8.13281C6.89062 7.94792 7.07422 7.80339 7.31641 7.69922C7.55859 7.59505 7.85286 7.53385 8.19922 7.51562L9.77734 7.41797V8.05859L8.33594 8.15234C8.0625 8.16797 7.86068 8.22526 7.73047 8.32422C7.60026 8.42318 7.53516 8.5612 7.53516 8.73828V8.74609C7.53516 8.92839 7.60417 9.07031 7.74219 9.17188C7.88281 9.27344 8.0612 9.32422 8.27734 9.32422C8.47266 9.32422 8.64714 9.28516 8.80078 9.20703C8.95443 9.12891 9.07552 9.02344 9.16406 8.89062C9.2526 8.75521 9.29688 8.60286 9.29688 8.43359V7.08203C9.29688 6.86849 9.22917 6.70573 9.09375 6.59375C8.95833 6.47917 8.75781 6.42188 8.49219 6.42188C8.27083 6.42188 8.08984 6.46094 7.94922 6.53906C7.80859 6.61458 7.71354 6.72266 7.66406 6.86328L7.66016 6.87891H6.74219L6.74609 6.84375C6.77734 6.60417 6.87109 6.39453 7.02734 6.21484C7.18359 6.03516 7.39062 5.89583 7.64844 5.79688C7.90625 5.69792 8.20312 5.64844 8.53906 5.64844C8.90885 5.64844 9.22135 5.70573 9.47656 5.82031C9.73177 5.93229 9.92578 6.09635 10.0586 6.3125C10.1914 6.52604 10.2578 6.78255 10.2578 7.08203V10H9.29688V9.41406H9.23047C9.15234 9.54948 9.05078 9.66667 8.92578 9.76562C8.80339 9.86458 8.66276 9.9401 8.50391 9.99219C8.34505 10.0443 8.17057 10.0703 7.98047 10.0703ZM13.8008 10.0703C13.6003 10.0703 13.4167 10.0417 13.25 9.98438C13.0833 9.92448 12.9362 9.83984 12.8086 9.73047C12.6836 9.61849 12.582 9.48568 12.5039 9.33203H12.4375V10H11.4648V4.07812H12.4375V6.41016H12.5039C12.5794 6.25651 12.681 6.1237 12.8086 6.01172C12.9362 5.89974 13.0846 5.8138 13.2539 5.75391C13.4232 5.69141 13.6055 5.66016 13.8008 5.66016C14.1602 5.66016 14.4701 5.75 14.7305 5.92969C14.9935 6.10677 15.1966 6.36068 15.3398 6.69141C15.4831 7.01953 15.5547 7.41016 15.5547 7.86328V7.87109C15.5547 8.31901 15.4818 8.70833 15.3359 9.03906C15.1927 9.36979 14.9896 9.625 14.7266 9.80469C14.4661 9.98177 14.1576 10.0703 13.8008 10.0703ZM13.4961 9.25C13.7174 9.25 13.9076 9.19531 14.0664 9.08594C14.2253 8.97396 14.3477 8.8151 14.4336 8.60938C14.5195 8.40365 14.5625 8.15755 14.5625 7.87109V7.86328C14.5625 7.57682 14.5195 7.33073 14.4336 7.125C14.3477 6.91667 14.2253 6.75781 14.0664 6.64844C13.9076 6.53646 13.7174 6.48047 13.4961 6.48047C13.2773 6.48047 13.0872 6.53646 12.9258 6.64844C12.7643 6.76042 12.6393 6.91927 12.5508 7.125C12.4648 7.33073 12.4219 7.57682 12.4219 7.86328V7.87109C12.4219 8.15495 12.4648 8.40104 12.5508 8.60938C12.6393 8.8151 12.763 8.97396 12.9219 9.08594C13.0833 9.19531 13.2747 9.25 13.4961 9.25Z" fill="#808080" style="fill:#808080;fill:color(display-p3 0.5020 0.5020 0.5020);fill-opacity:1;"/>
</symbol><symbol viewBox="0 0 15 14" id="ue904-return--">
<rect x="0.5" y="0.5" width="14" height="13" rx="1.5" stroke="#808080" style="stroke:#808080;stroke:color(display-p3 0.5020 0.5020 0.5020);stroke-opacity:1;"/>
<path d="M6.22266 10.0391C6.10807 10.0391 6.00781 9.99609 5.92188 9.91016L4.21094 8.23047C4.125 8.14453 4.08203 8.04036 4.08203 7.91797C4.08203 7.79557 4.125 7.69271 4.21094 7.60938L5.92188 5.92969C6.00781 5.84375 6.10807 5.80078 6.22266 5.80078C6.34505 5.80078 6.44271 5.83854 6.51562 5.91406C6.59115 5.98958 6.62891 6.08464 6.62891 6.19922C6.62891 6.26432 6.61719 6.32031 6.59375 6.36719C6.57031 6.41146 6.54036 6.45312 6.50391 6.49219L5.83594 7.13672L5.05469 7.77734L4.91406 7.55469L6.05469 7.5H9.69141C9.83724 7.5 9.9401 7.46875 10 7.40625C10.0625 7.34375 10.0938 7.23958 10.0938 7.09375V5.36719C10.0938 5.22396 10.0625 5.12109 10 5.05859C9.9401 4.99609 9.83724 4.96484 9.69141 4.96484H8.09766C7.97526 4.96484 7.8737 4.92448 7.79297 4.84375C7.71224 4.76302 7.67188 4.66536 7.67188 4.55078C7.67188 4.43359 7.71224 4.33464 7.79297 4.25391C7.8737 4.17057 7.97526 4.12891 8.09766 4.12891H9.71875C10.1406 4.12891 10.4453 4.22396 10.6328 4.41406C10.8229 4.60156 10.918 4.90625 10.918 5.32812V7.13672C10.918 7.55078 10.8229 7.85417 10.6328 8.04688C10.4453 8.23958 10.1406 8.33594 9.71875 8.33594H6.05469L4.91406 8.28125L5.05469 8.05859L5.83594 8.69922L6.50391 9.34375C6.54036 9.38021 6.57031 9.42318 6.59375 9.47266C6.61719 9.51953 6.62891 9.57422 6.62891 9.63672C6.62891 9.7513 6.59115 9.84766 6.51562 9.92578C6.44271 10.0013 6.34505 10.0391 6.22266 10.0391Z" fill="#808080" style="fill:#808080;fill:color(display-p3 0.5020 0.5020 0.5020);fill-opacity:1;"/>
</symbol><symbol viewBox="0 0 20 14" id="ue905-escape--">
<rect x="0.5" y="0.5" width="19" height="13" rx="1.5" stroke="#808080" style="stroke:#808080;stroke:color(display-p3 0.5020 0.5020 0.5020);stroke-opacity:1;"/>
<path d="M5.55078 10.0859C5.1263 10.0859 4.76172 9.99609 4.45703 9.81641C4.15495 9.63672 3.92188 9.38151 3.75781 9.05078C3.59375 8.72005 3.51172 8.32812 3.51172 7.875V7.87109C3.51172 7.42318 3.59245 7.03255 3.75391 6.69922C3.91797 6.36589 4.14974 6.10807 4.44922 5.92578C4.7487 5.74089 5.10026 5.64844 5.50391 5.64844C5.91016 5.64844 6.25911 5.73828 6.55078 5.91797C6.84505 6.09505 7.07161 6.34375 7.23047 6.66406C7.38932 6.98438 7.46875 7.35938 7.46875 7.78906V8.10938H4V7.45703H6.99219L6.53125 8.06641V7.67969C6.53125 7.39583 6.48828 7.16016 6.40234 6.97266C6.31641 6.78516 6.19661 6.64453 6.04297 6.55078C5.89193 6.45703 5.71615 6.41016 5.51562 6.41016C5.3151 6.41016 5.13672 6.45964 4.98047 6.55859C4.82682 6.65495 4.70443 6.79818 4.61328 6.98828C4.52474 7.17578 4.48047 7.40625 4.48047 7.67969V8.07031C4.48047 8.33333 4.52474 8.55859 4.61328 8.74609C4.70182 8.93099 4.82682 9.07422 4.98828 9.17578C5.15234 9.27474 5.34635 9.32422 5.57031 9.32422C5.74479 9.32422 5.89453 9.29948 6.01953 9.25C6.14714 9.19792 6.25 9.13672 6.32812 9.06641C6.40625 8.99349 6.46094 8.92448 6.49219 8.85938L6.50391 8.83203H7.42578L7.41797 8.86719C7.38411 9.00521 7.32161 9.14583 7.23047 9.28906C7.14193 9.42969 7.02083 9.5612 6.86719 9.68359C6.71615 9.80339 6.53125 9.90104 6.3125 9.97656C6.09375 10.0495 5.83984 10.0859 5.55078 10.0859ZM10.0547 10.0859C9.69271 10.0859 9.38021 10.0352 9.11719 9.93359C8.85677 9.82943 8.65104 9.6862 8.5 9.50391C8.34896 9.31901 8.25911 9.10547 8.23047 8.86328V8.85547H9.19531L9.19922 8.86328C9.2513 9.01172 9.34896 9.13281 9.49219 9.22656C9.63542 9.32031 9.82812 9.36719 10.0703 9.36719C10.2318 9.36719 10.3737 9.34505 10.4961 9.30078C10.6185 9.25391 10.7148 9.1901 10.7852 9.10938C10.8555 9.02865 10.8906 8.9349 10.8906 8.82812V8.82031C10.8906 8.69531 10.8398 8.59115 10.7383 8.50781C10.6367 8.42188 10.4688 8.35286 10.2344 8.30078L9.54297 8.14453C9.27214 8.08464 9.04818 8.0013 8.87109 7.89453C8.69401 7.78776 8.5612 7.65625 8.47266 7.5C8.38672 7.34375 8.34375 7.16146 8.34375 6.95312V6.94922C8.34375 6.69141 8.41536 6.46484 8.55859 6.26953C8.70443 6.07422 8.90625 5.92188 9.16406 5.8125C9.42188 5.70312 9.71875 5.64844 10.0547 5.64844C10.401 5.64844 10.6992 5.70052 10.9492 5.80469C11.1992 5.90885 11.3945 6.05208 11.5352 6.23438C11.6758 6.41667 11.7565 6.6237 11.7773 6.85547V6.86328H10.8633L10.8594 6.85156C10.8229 6.71615 10.7357 6.60156 10.5977 6.50781C10.4622 6.41146 10.2799 6.36328 10.0508 6.36328C9.90755 6.36328 9.77865 6.38542 9.66406 6.42969C9.55208 6.47396 9.46354 6.53646 9.39844 6.61719C9.33594 6.69531 9.30469 6.78776 9.30469 6.89453V6.89844C9.30469 6.98177 9.32552 7.05469 9.36719 7.11719C9.41146 7.17969 9.48047 7.23438 9.57422 7.28125C9.66797 7.32812 9.79167 7.36979 9.94531 7.40625L10.6367 7.55859C11.056 7.65234 11.3659 7.79167 11.5664 7.97656C11.7669 8.16146 11.8672 8.41016 11.8672 8.72266V8.73047C11.8672 9.0013 11.7891 9.23828 11.6328 9.44141C11.4766 9.64453 11.2617 9.80339 10.9883 9.91797C10.7148 10.0299 10.4036 10.0859 10.0547 10.0859ZM14.6797 10.0859C14.25 10.0859 13.8828 9.9974 13.5781 9.82031C13.2734 9.64323 13.0404 9.38802 12.8789 9.05469C12.7174 8.72135 12.6367 8.32292 12.6367 7.85938V7.85156C12.6367 7.39062 12.7174 6.99609 12.8789 6.66797C13.0404 6.33984 13.2734 6.08854 13.5781 5.91406C13.8828 5.73698 14.2487 5.64844 14.6758 5.64844C15.043 5.64844 15.3581 5.71224 15.6211 5.83984C15.8867 5.96484 16.0964 6.13932 16.25 6.36328C16.4062 6.58464 16.5026 6.84375 16.5391 7.14062V7.15625H15.6211L15.6172 7.14453C15.5729 6.9362 15.4714 6.76562 15.3125 6.63281C15.1562 6.5 14.9453 6.43359 14.6797 6.43359C14.4583 6.43359 14.2682 6.48958 14.1094 6.60156C13.9531 6.71354 13.8333 6.875 13.75 7.08594C13.6667 7.29688 13.625 7.55208 13.625 7.85156V7.85938C13.625 8.16146 13.6667 8.42057 13.75 8.63672C13.8359 8.85026 13.957 9.01432 14.1133 9.12891C14.2695 9.24089 14.4583 9.29688 14.6797 9.29688C14.9323 9.29688 15.1354 9.23958 15.2891 9.125C15.4453 9.01042 15.5534 8.84115 15.6133 8.61719L15.6211 8.60156L16.5352 8.59766L16.5312 8.63281C16.4844 8.92188 16.3828 9.17578 16.2266 9.39453C16.0729 9.61328 15.8672 9.78385 15.6094 9.90625C15.3516 10.026 15.0417 10.0859 14.6797 10.0859Z" fill="#808080" style="fill:#808080;fill:color(display-p3 0.5020 0.5020 0.5020);fill-opacity:1;"/>
</symbol><symbol viewBox="0 0 15 14" id="ue906-shift--">
<rect x="0.5" y="0.5" width="14" height="13" rx="1.5" stroke="#808080" style="stroke:#808080;stroke:color(display-p3 0.5020 0.5020 0.5020);stroke-opacity:1;"/>
<path d="M6.53906 10.1016C6.29167 10.1016 6.10286 10.0339 5.97266 9.89844C5.84505 9.76302 5.78125 9.57682 5.78125 9.33984V8.07031H4.64062C4.48698 8.07031 4.35938 8.02865 4.25781 7.94531C4.15885 7.85938 4.10938 7.74609 4.10938 7.60547C4.10938 7.51693 4.1276 7.4401 4.16406 7.375C4.20312 7.3099 4.26172 7.23828 4.33984 7.16016L7.07031 4.41406C7.13281 4.35156 7.20052 4.30339 7.27344 4.26953C7.34635 4.23307 7.42188 4.21484 7.5 4.21484C7.58073 4.21484 7.65625 4.23307 7.72656 4.26953C7.79948 4.30339 7.86719 4.35156 7.92969 4.41406L10.6602 7.16016C10.7357 7.23828 10.793 7.3099 10.832 7.375C10.8711 7.4401 10.8906 7.51693 10.8906 7.60547C10.8906 7.74609 10.8398 7.85938 10.7383 7.94531C10.6393 8.02865 10.513 8.07031 10.3594 8.07031H9.21875V9.33984C9.21875 9.57682 9.15365 9.76302 9.02344 9.89844C8.89323 10.0339 8.70573 10.1016 8.46094 10.1016H6.53906ZM6.71875 9.35156H8.27734C8.32422 9.35156 8.36198 9.33724 8.39062 9.30859C8.42188 9.27734 8.4375 9.23828 8.4375 9.19141V7.50391C8.4375 7.4362 8.47266 7.40234 8.54297 7.40234H9.80078C9.8138 7.40234 9.82031 7.39714 9.82031 7.38672C9.82031 7.37891 9.81641 7.37109 9.80859 7.36328L7.53516 5.09766C7.52474 5.08724 7.51302 5.08203 7.5 5.08203C7.48438 5.08203 7.47266 5.08724 7.46484 5.09766L5.19141 7.36328C5.18359 7.37109 5.17969 7.37891 5.17969 7.38672C5.17969 7.39714 5.1875 7.40234 5.20312 7.40234H6.45703C6.52734 7.40234 6.5625 7.4362 6.5625 7.50391V9.19141C6.5625 9.24089 6.57682 9.27995 6.60547 9.30859C6.63411 9.33724 6.67188 9.35156 6.71875 9.35156Z" fill="#808080" style="fill:#808080;fill:color(display-p3 0.5020 0.5020 0.5020);fill-opacity:1;"/>
</symbol><symbol viewBox="0 0 13 14" id="ue907-a--">
<rect x="0.5" y="0.5" width="12" height="13" rx="1.5" stroke="#808080" style="stroke:#808080;stroke:color(display-p3 0.5020 0.5020 0.5020);stroke-opacity:1;"/>
<path d="M3.93359 10L5.93359 4.36328H6.76953V5.41016H6.46875L4.98828 10H3.93359ZM4.94141 8.54297L5.20312 7.76562H7.78906L8.05078 8.54297H4.94141ZM8.01562 10L6.53516 5.41016V4.36328H7.06641L9.07031 10H8.01562Z" fill="#808080" style="fill:#808080;fill:color(display-p3 0.5020 0.5020 0.5020);fill-opacity:1;"/>
</symbol><symbol viewBox="0 0 13 14" id="ue908-b--">
<rect x="0.5" y="0.5" width="12" height="13" rx="1.5" stroke="#808080" style="stroke:#808080;stroke:color(display-p3 0.5020 0.5020 0.5020);stroke-opacity:1;"/>
<path d="M4.97656 10V9.21875H6.65234C7.02474 9.21875 7.30729 9.14323 7.5 8.99219C7.69271 8.83854 7.78906 8.61849 7.78906 8.33203V8.32422C7.78906 8.13411 7.74479 7.97396 7.65625 7.84375C7.56771 7.71354 7.4349 7.61589 7.25781 7.55078C7.08333 7.48568 6.86719 7.45312 6.60938 7.45312H4.97656V6.73828H6.45312C6.8099 6.73828 7.08073 6.67057 7.26562 6.53516C7.45312 6.39974 7.54688 6.20443 7.54688 5.94922V5.94141C7.54688 5.69141 7.46224 5.49609 7.29297 5.35547C7.1237 5.21484 6.88672 5.14453 6.58203 5.14453H4.97656V4.36328H6.82422C7.18359 4.36328 7.49089 4.42057 7.74609 4.53516C8.0013 4.64714 8.19792 4.80859 8.33594 5.01953C8.47396 5.22786 8.54297 5.47656 8.54297 5.76562V5.77344C8.54297 5.97135 8.4974 6.15625 8.40625 6.32812C8.31771 6.5 8.19792 6.64323 8.04688 6.75781C7.89844 6.8724 7.72917 6.94531 7.53906 6.97656V7.04688C7.79167 7.07031 8.01302 7.14323 8.20312 7.26562C8.39583 7.38542 8.54557 7.54297 8.65234 7.73828C8.76172 7.93359 8.81641 8.15234 8.81641 8.39453V8.40234C8.81641 8.73047 8.73828 9.01432 8.58203 9.25391C8.42839 9.49349 8.20703 9.67839 7.91797 9.80859C7.62891 9.9362 7.28385 10 6.88281 10H4.97656ZM4.47266 10V4.36328H5.48047V10H4.47266Z" fill="#808080" style="fill:#808080;fill:color(display-p3 0.5020 0.5020 0.5020);fill-opacity:1;"/>
</symbol><symbol viewBox="0 0 13 14" id="ue909-c--">
<rect x="0.5" y="0.5" width="12" height="13" rx="1.5" stroke="#808080" style="stroke:#808080;stroke:color(display-p3 0.5020 0.5020 0.5020);stroke-opacity:1;"/>
<path d="M6.61719 10.1406C6.08333 10.1406 5.6224 10.0208 5.23438 9.78125C4.84896 9.54167 4.55078 9.20182 4.33984 8.76172C4.13151 8.31901 4.02734 7.79427 4.02734 7.1875V7.17969C4.02734 6.57031 4.13151 6.04557 4.33984 5.60547C4.55078 5.16276 4.84896 4.82161 5.23438 4.58203C5.61979 4.34245 6.07943 4.22266 6.61328 4.22266C7.04036 4.22266 7.42578 4.30729 7.76953 4.47656C8.11328 4.64323 8.39323 4.875 8.60938 5.17188C8.82552 5.46615 8.95573 5.80469 9 6.1875L8.99609 6.21875H8.01172L8.00781 6.19922C7.96094 5.97786 7.8724 5.78516 7.74219 5.62109C7.61198 5.45443 7.45052 5.32552 7.25781 5.23438C7.0651 5.14062 6.85026 5.09375 6.61328 5.09375C6.29557 5.09375 6.01953 5.17839 5.78516 5.34766C5.55078 5.51693 5.36979 5.75781 5.24219 6.07031C5.11719 6.38021 5.05469 6.7487 5.05469 7.17578V7.18359C5.05469 7.61068 5.11719 7.98047 5.24219 8.29297C5.36979 8.60547 5.55078 8.84635 5.78516 9.01562C6.01953 9.1849 6.29688 9.26953 6.61719 9.26953C6.85677 9.26953 7.07161 9.22786 7.26172 9.14453C7.45443 9.0612 7.61458 8.94401 7.74219 8.79297C7.8724 8.63932 7.96094 8.45964 8.00781 8.25391L8.01562 8.23047H9V8.26172C8.95052 8.63672 8.81901 8.96484 8.60547 9.24609C8.39193 9.52734 8.11589 9.7474 7.77734 9.90625C7.4388 10.0625 7.05208 10.1406 6.61719 10.1406Z" fill="#808080" style="fill:#808080;fill:color(display-p3 0.5020 0.5020 0.5020);fill-opacity:1;"/>
</symbol><symbol viewBox="0 0 13 14" id="ue90a-d--">
<rect x="0.5" y="0.5" width="12" height="13" rx="1.5" stroke="#808080" style="stroke:#808080;stroke:color(display-p3 0.5020 0.5020 0.5020);stroke-opacity:1;"/>
<path d="M4.23438 10V4.36328H6.34766C6.90755 4.36328 7.38411 4.47266 7.77734 4.69141C8.17318 4.91016 8.47526 5.22786 8.68359 5.64453C8.89453 6.0612 9 6.5638 9 7.15234V7.16016C9 7.76172 8.89583 8.27474 8.6875 8.69922C8.47917 9.12109 8.17708 9.44401 7.78125 9.66797C7.38802 9.88932 6.91016 10 6.34766 10H4.23438ZM5.24219 9.15234H6.21484C6.58724 9.15234 6.90495 9.07552 7.16797 8.92188C7.43099 8.76823 7.63021 8.54427 7.76562 8.25C7.90365 7.95573 7.97266 7.59766 7.97266 7.17578V7.16797C7.97266 6.75651 7.90234 6.40495 7.76172 6.11328C7.6237 5.81901 7.42318 5.59505 7.16016 5.44141C6.89714 5.28776 6.58203 5.21094 6.21484 5.21094H5.24219V9.15234Z" fill="#808080" style="fill:#808080;fill:color(display-p3 0.5020 0.5020 0.5020);fill-opacity:1;"/>
</symbol><symbol viewBox="0 0 13 14" id="ue90b-e--">
<rect x="0.5" y="0.5" width="12" height="13" rx="1.5" stroke="#808080" style="stroke:#808080;stroke:color(display-p3 0.5020 0.5020 0.5020);stroke-opacity:1;"/>
<path d="M4.74609 10V4.36328H8.39453V5.21094H5.75391V6.73828H8.25V7.53906H5.75391V9.15234H8.39453V10H4.74609Z" fill="#808080" style="fill:#808080;fill:color(display-p3 0.5020 0.5020 0.5020);fill-opacity:1;"/>
</symbol><symbol viewBox="0 0 13 14" id="ue90c-f--">
<rect x="0.5" y="0.5" width="12" height="13" rx="1.5" stroke="#808080" style="stroke:#808080;stroke:color(display-p3 0.5020 0.5020 0.5020);stroke-opacity:1;"/>
<path d="M4.83984 10V4.36328H8.43359V5.21094H5.84766V6.87891H8.21094V7.69922H5.84766V10H4.83984Z" fill="#808080" style="fill:#808080;fill:color(display-p3 0.5020 0.5020 0.5020);fill-opacity:1;"/>
</symbol><symbol viewBox="0 0 13 14" id="ue90d-g--">
<rect x="0.5" y="0.5" width="12" height="13" rx="1.5" stroke="#808080" style="stroke:#808080;stroke:color(display-p3 0.5020 0.5020 0.5020);stroke-opacity:1;"/>
<path d="M6.58203 10.1406C6.17318 10.1406 5.80599 10.0729 5.48047 9.9375C5.15495 9.79948 4.8763 9.60156 4.64453 9.34375C4.41536 9.08594 4.23958 8.77604 4.11719 8.41406C3.99479 8.04948 3.93359 7.63932 3.93359 7.18359V7.17578C3.93359 6.57422 4.04167 6.05339 4.25781 5.61328C4.47396 5.17057 4.77865 4.82812 5.17188 4.58594C5.56771 4.34375 6.03255 4.22266 6.56641 4.22266C7.0013 4.22266 7.38932 4.30078 7.73047 4.45703C8.07422 4.61068 8.35547 4.82682 8.57422 5.10547C8.79297 5.38151 8.93229 5.70312 8.99219 6.07031L9 6.10938H8L7.98828 6.07031C7.89714 5.76042 7.72786 5.52083 7.48047 5.35156C7.23307 5.17969 6.92839 5.09375 6.56641 5.09375C6.23828 5.09375 5.95312 5.17839 5.71094 5.34766C5.47135 5.51693 5.28646 5.75651 5.15625 6.06641C5.02604 6.3763 4.96094 6.74349 4.96094 7.16797V7.17578C4.96094 7.4987 4.9987 7.78906 5.07422 8.04688C5.14974 8.30469 5.25781 8.52474 5.39844 8.70703C5.54167 8.88932 5.71354 9.02865 5.91406 9.125C6.11719 9.22135 6.34505 9.26953 6.59766 9.26953C6.88411 9.26953 7.13542 9.21354 7.35156 9.10156C7.57031 8.98958 7.74089 8.83333 7.86328 8.63281C7.98828 8.43229 8.05339 8.19922 8.05859 7.93359V7.81641H6.70703V7.04688H9.04297V7.75C9.04297 8.11458 8.98568 8.44401 8.87109 8.73828C8.75651 9.03255 8.59115 9.28385 8.375 9.49219C8.16146 9.70052 7.90234 9.86068 7.59766 9.97266C7.29557 10.0846 6.95703 10.1406 6.58203 10.1406Z" fill="#808080" style="fill:#808080;fill:color(display-p3 0.5020 0.5020 0.5020);fill-opacity:1;"/>
</symbol><symbol viewBox="0 0 13 14" id="ue90e-h--">
<rect x="0.5" y="0.5" width="12" height="13" rx="1.5" stroke="#808080" style="stroke:#808080;stroke:color(display-p3 0.5020 0.5020 0.5020);stroke-opacity:1;"/>
<path d="M4.12109 10V4.36328H5.12891V6.70703H7.87109V4.36328H8.875V10H7.87109V7.55469H5.12891V10H4.12109Z" fill="#808080" style="fill:#808080;fill:color(display-p3 0.5020 0.5020 0.5020);fill-opacity:1;"/>
</symbol><symbol viewBox="0 0 13 14" id="ue90f-i--">
<rect x="0.5" y="0.5" width="12" height="13" rx="1.5" stroke="#808080" style="stroke:#808080;stroke:color(display-p3 0.5020 0.5020 0.5020);stroke-opacity:1;"/>
<path d="M5.99609 10V4.36328H7.00391V10H5.99609Z" fill="#808080" style="fill:#808080;fill:color(display-p3 0.5020 0.5020 0.5020);fill-opacity:1;"/>
</symbol><symbol viewBox="0 0 13 14" id="ue910-j--">
<rect x="0.5" y="0.5" width="12" height="13" rx="1.5" stroke="#808080" style="stroke:#808080;stroke:color(display-p3 0.5020 0.5020 0.5020);stroke-opacity:1;"/>
<path d="M6.28516 10.1406C6.01172 10.1406 5.76693 10.1016 5.55078 10.0234C5.33464 9.94531 5.14974 9.83464 4.99609 9.69141C4.84505 9.54818 4.72656 9.3776 4.64062 9.17969C4.55729 8.97917 4.51042 8.75781 4.5 8.51562L4.49609 8.47266H5.48047L5.48438 8.50391C5.49479 8.64714 5.52995 8.77604 5.58984 8.89062C5.65234 9.0026 5.74089 9.09245 5.85547 9.16016C5.97005 9.22526 6.10938 9.25781 6.27344 9.25781C6.54688 9.25781 6.75391 9.17839 6.89453 9.01953C7.03776 8.85807 7.10938 8.625 7.10938 8.32031V4.36328H8.11328V8.32812C8.11328 8.70833 8.04167 9.03385 7.89844 9.30469C7.75521 9.57552 7.54688 9.78255 7.27344 9.92578C7 10.069 6.67057 10.1406 6.28516 10.1406Z" fill="#808080" style="fill:#808080;fill:color(display-p3 0.5020 0.5020 0.5020);fill-opacity:1;"/>
</symbol><symbol viewBox="0 0 13 14" id="ue911-k--">
<rect x="0.5" y="0.5" width="12" height="13" rx="1.5" stroke="#808080" style="stroke:#808080;stroke:color(display-p3 0.5020 0.5020 0.5020);stroke-opacity:1;"/>
<path d="M5.35938 8.27734L5.32031 6.96875H5.50391L7.72656 4.36328H8.87891L6.67578 6.90625L6.11328 7.40234L5.35938 8.27734ZM4.42969 10V4.36328H5.4375V10H4.42969ZM7.82031 10L5.97266 7.39453L6.68359 6.72266L9.05078 10H7.82031Z" fill="#808080" style="fill:#808080;fill:color(display-p3 0.5020 0.5020 0.5020);fill-opacity:1;"/>
</symbol><symbol viewBox="0 0 13 14" id="ue912-l--">
<rect x="0.5" y="0.5" width="12" height="13" rx="1.5" stroke="#808080" style="stroke:#808080;stroke:color(display-p3 0.5020 0.5020 0.5020);stroke-opacity:1;"/>
<path d="M4.85547 10V4.36328H5.86328V9.15234H8.44531V10H4.85547Z" fill="#808080" style="fill:#808080;fill:color(display-p3 0.5020 0.5020 0.5020);fill-opacity:1;"/>
</symbol><symbol viewBox="0 0 14 14" id="ue913-m--">
<rect x="0.5" y="0.5" width="13" height="13" rx="1.5" stroke="#808080" style="stroke:#808080;stroke:color(display-p3 0.5020 0.5020 0.5020);stroke-opacity:1;"/>
<path d="M4.11719 10V4.36328H5.27344L6.96875 8.70312H7.03516L8.72656 4.36328H9.88281V10H8.97656V5.99219H8.48438L9.48438 4.51953L7.34375 10H6.65625L4.51953 4.51953L5.51953 5.99219H5.02344V10H4.11719Z" fill="#808080" style="fill:#808080;fill:color(display-p3 0.5020 0.5020 0.5020);fill-opacity:1;"/>
</symbol><symbol viewBox="0 0 13 14" id="ue914-n--">
<rect x="0.5" y="0.5" width="12" height="13" rx="1.5" stroke="#808080" style="stroke:#808080;stroke:color(display-p3 0.5020 0.5020 0.5020);stroke-opacity:1;"/>
<path d="M4.16016 10V4.36328H5.03516L8.05859 8.60156L7.36328 8.24609H7.86719V4.36328H8.83594V10H7.96484L4.94141 5.75781L5.63672 6.11328H5.13281V10H4.16016Z" fill="#808080" style="fill:#808080;fill:color(display-p3 0.5020 0.5020 0.5020);fill-opacity:1;"/>
</symbol><symbol viewBox="0 0 13 14" id="ue915-o--">
<rect x="0.5" y="0.5" width="12" height="13" rx="1.5" stroke="#808080" style="stroke:#808080;stroke:color(display-p3 0.5020 0.5020 0.5020);stroke-opacity:1;"/>
<path d="M6.5 10.1406C5.94792 10.1406 5.47266 10.0208 5.07422 9.78125C4.67839 9.53906 4.3724 9.19661 4.15625 8.75391C3.9401 8.3112 3.83203 7.78776 3.83203 7.18359V7.17578C3.83203 6.56901 3.9401 6.04557 4.15625 5.60547C4.375 5.16276 4.68359 4.82161 5.08203 4.58203C5.48307 4.34245 5.95573 4.22266 6.5 4.22266C7.04688 4.22266 7.51953 4.34245 7.91797 4.58203C8.31641 4.82161 8.6237 5.16276 8.83984 5.60547C9.05599 6.04818 9.16406 6.57161 9.16406 7.17578V7.18359C9.16406 7.78776 9.05599 8.3112 8.83984 8.75391C8.6263 9.19661 8.32031 9.53906 7.92188 9.78125C7.52344 10.0208 7.04948 10.1406 6.5 10.1406ZM6.5 9.26953C6.83594 9.26953 7.1263 9.18359 7.37109 9.01172C7.61589 8.83984 7.80469 8.59766 7.9375 8.28516C8.07292 7.97266 8.14062 7.60547 8.14062 7.18359V7.17578C8.14062 6.7513 8.07292 6.38411 7.9375 6.07422C7.80469 5.76172 7.61589 5.52083 7.37109 5.35156C7.1263 5.17969 6.83594 5.09375 6.5 5.09375C6.16667 5.09375 5.8763 5.17969 5.62891 5.35156C5.38411 5.52083 5.19401 5.76172 5.05859 6.07422C4.92578 6.38411 4.85938 6.7513 4.85938 7.17578V7.18359C4.85938 7.60547 4.92448 7.97266 5.05469 8.28516C5.1875 8.59766 5.3763 8.83984 5.62109 9.01172C5.86849 9.18359 6.16146 9.26953 6.5 9.26953Z" fill="#808080" style="fill:#808080;fill:color(display-p3 0.5020 0.5020 0.5020);fill-opacity:1;"/>
</symbol><symbol viewBox="0 0 13 14" id="ue916-p--">
<rect x="0.5" y="0.5" width="12" height="13" rx="1.5" stroke="#808080" style="stroke:#808080;stroke:color(display-p3 0.5020 0.5020 0.5020);stroke-opacity:1;"/>
<path d="M5.05859 8.13672V7.32422H6.55859C6.92057 7.32422 7.20182 7.23177 7.40234 7.04688C7.60286 6.85938 7.70312 6.59635 7.70312 6.25781V6.25C7.70312 5.90885 7.60286 5.64583 7.40234 5.46094C7.20182 5.27604 6.92057 5.18359 6.55859 5.18359H5.05859V4.36328H6.80469C7.1875 4.36328 7.52214 4.44141 7.80859 4.59766C8.09505 4.75391 8.31901 4.97396 8.48047 5.25781C8.64193 5.53906 8.72266 5.86849 8.72266 6.24609V6.25391C8.72266 6.62891 8.64193 6.95833 8.48047 7.24219C8.31901 7.52344 8.09505 7.74349 7.80859 7.90234C7.52214 8.05859 7.1875 8.13672 6.80469 8.13672H5.05859ZM4.55469 10V4.36328H5.5625V10H4.55469Z" fill="#808080" style="fill:#808080;fill:color(display-p3 0.5020 0.5020 0.5020);fill-opacity:1;"/>
</symbol><symbol viewBox="0 0 13 14" id="ue917-q--">
<rect x="0.5" y="0.5" width="12" height="13" rx="1.5" stroke="#808080" style="stroke:#808080;stroke:color(display-p3 0.5020 0.5020 0.5020);stroke-opacity:1;"/>
<path d="M6.5 10.1406C5.94792 10.1406 5.47266 10.0208 5.07422 9.78125C4.67839 9.53906 4.3724 9.19661 4.15625 8.75391C3.9401 8.3112 3.83203 7.78776 3.83203 7.18359V7.17578C3.83203 6.56901 3.9401 6.04557 4.15625 5.60547C4.375 5.16276 4.68359 4.82161 5.08203 4.58203C5.48307 4.34245 5.95573 4.22266 6.5 4.22266C7.04688 4.22266 7.51953 4.34245 7.91797 4.58203C8.31641 4.82161 8.6237 5.16276 8.83984 5.60547C9.05599 6.04818 9.16406 6.57161 9.16406 7.17578V7.18359C9.16406 7.78776 9.05599 8.3112 8.83984 8.75391C8.6263 9.19661 8.32031 9.53906 7.92188 9.78125C7.52344 10.0208 7.04948 10.1406 6.5 10.1406ZM6.5 9.26953C6.83594 9.26953 7.1263 9.18359 7.37109 9.01172C7.61589 8.83984 7.80469 8.59766 7.9375 8.28516C8.07292 7.97266 8.14062 7.60547 8.14062 7.18359V7.17578C8.14062 6.7513 8.07292 6.38411 7.9375 6.07422C7.80469 5.76172 7.61589 5.52083 7.37109 5.35156C7.1263 5.17969 6.83594 5.09375 6.5 5.09375C6.16667 5.09375 5.8763 5.17969 5.62891 5.35156C5.38411 5.52083 5.19401 5.76172 5.05859 6.07422C4.92578 6.38411 4.85938 6.7513 4.85938 7.17578V7.18359C4.85938 7.60547 4.92448 7.97266 5.05469 8.28516C5.1875 8.59766 5.3763 8.83984 5.62109 9.01172C5.86849 9.18359 6.16146 9.26953 6.5 9.26953ZM7.96875 10.5859L6.21875 8.23438H7.20312L8.95312 10.5859H7.96875Z" fill="#808080" style="fill:#808080;fill:color(display-p3 0.5020 0.5020 0.5020);fill-opacity:1;"/>
</symbol><symbol viewBox="0 0 13 14" id="ue918-r--">
<rect x="0.5" y="0.5" width="12" height="13" rx="1.5" stroke="#808080" style="stroke:#808080;stroke:color(display-p3 0.5020 0.5020 0.5020);stroke-opacity:1;"/>
<path d="M4.47656 10V4.36328H6.75391C7.15755 4.36328 7.50391 4.4349 7.79297 4.57812C8.08203 4.72135 8.30339 4.92318 8.45703 5.18359C8.61068 5.44401 8.6875 5.75391 8.6875 6.11328V6.12109C8.6875 6.49349 8.59375 6.82422 8.40625 7.11328C8.22135 7.39974 7.96224 7.60286 7.62891 7.72266L8.85938 10H7.71094L6.60156 7.87891C6.59635 7.87891 6.58854 7.87891 6.57812 7.87891C6.56771 7.87891 6.55859 7.87891 6.55078 7.87891H5.48438V10H4.47656ZM5.48438 7.10547H6.64844C6.96875 7.10547 7.21745 7.02083 7.39453 6.85156C7.57161 6.68229 7.66016 6.44661 7.66016 6.14453V6.13672C7.66016 5.84245 7.56771 5.60938 7.38281 5.4375C7.20052 5.26302 6.94922 5.17578 6.62891 5.17578H5.48438V7.10547Z" fill="#808080" style="fill:#808080;fill:color(display-p3 0.5020 0.5020 0.5020);fill-opacity:1;"/>
</symbol><symbol viewBox="0 0 13 14" id="ue919-s--">
<rect x="0.5" y="0.5" width="12" height="13" rx="1.5" stroke="#808080" style="stroke:#808080;stroke:color(display-p3 0.5020 0.5020 0.5020);stroke-opacity:1;"/>
<path d="M6.50781 10.1406C6.07031 10.1406 5.6901 10.0729 5.36719 9.9375C5.04688 9.80208 4.79427 9.61328 4.60938 9.37109C4.42448 9.12891 4.32031 8.84635 4.29688 8.52344L4.29297 8.46875H5.26953L5.27344 8.50781C5.28906 8.66667 5.35156 8.80469 5.46094 8.92188C5.57292 9.03906 5.72135 9.13151 5.90625 9.19922C6.09115 9.26432 6.30208 9.29688 6.53906 9.29688C6.76562 9.29688 6.96615 9.26172 7.14062 9.19141C7.3151 9.12109 7.45182 9.02474 7.55078 8.90234C7.64974 8.77734 7.69922 8.63411 7.69922 8.47266V8.46875C7.69922 8.26562 7.61979 8.10026 7.46094 7.97266C7.30208 7.84245 7.04036 7.73828 6.67578 7.66016L6.07031 7.53516C5.49219 7.41276 5.07161 7.21745 4.80859 6.94922C4.54818 6.67839 4.41797 6.33333 4.41797 5.91406V5.91016C4.41797 5.57422 4.50651 5.27995 4.68359 5.02734C4.86328 4.77474 5.10938 4.57812 5.42188 4.4375C5.73698 4.29427 6.09766 4.22266 6.50391 4.22266C6.92057 4.22266 7.28125 4.29297 7.58594 4.43359C7.89062 4.57161 8.13021 4.76042 8.30469 5C8.47917 5.23958 8.57682 5.51042 8.59766 5.8125L8.60156 5.86328H7.64062L7.63281 5.81641C7.60938 5.66797 7.54818 5.53906 7.44922 5.42969C7.35286 5.31771 7.22396 5.22917 7.0625 5.16406C6.90104 5.09896 6.71224 5.06641 6.49609 5.06641C6.29036 5.06641 6.10677 5.09896 5.94531 5.16406C5.78385 5.22656 5.65625 5.3151 5.5625 5.42969C5.47135 5.54427 5.42578 5.68229 5.42578 5.84375V5.84766C5.42578 6.04557 5.5026 6.20964 5.65625 6.33984C5.8125 6.47005 6.06641 6.57161 6.41797 6.64453L7.02344 6.77344C7.41927 6.85677 7.74089 6.96745 7.98828 7.10547C8.23568 7.24349 8.41667 7.41536 8.53125 7.62109C8.64844 7.82422 8.70703 8.06901 8.70703 8.35547V8.35938C8.70703 8.72396 8.61719 9.03906 8.4375 9.30469C8.26042 9.57031 8.00651 9.77604 7.67578 9.92188C7.34766 10.0677 6.95833 10.1406 6.50781 10.1406Z" fill="#808080" style="fill:#808080;fill:color(display-p3 0.5020 0.5020 0.5020);fill-opacity:1;"/>
</symbol><symbol viewBox="0 0 13 14" id="ue91a-t--">
<rect x="0.5" y="0.5" width="12" height="13" rx="1.5" stroke="#808080" style="stroke:#808080;stroke:color(display-p3 0.5020 0.5020 0.5020);stroke-opacity:1;"/>
<path d="M5.99609 10V5.21094H4.26172V4.36328H8.73828V5.21094H7.00391V10H5.99609Z" fill="#808080" style="fill:#808080;fill:color(display-p3 0.5020 0.5020 0.5020);fill-opacity:1;"/>
</symbol><symbol viewBox="0 0 13 14" id="ue91b-u--">
<rect x="0.5" y="0.5" width="12" height="13" rx="1.5" stroke="#808080" style="stroke:#808080;stroke:color(display-p3 0.5020 0.5020 0.5020);stroke-opacity:1;"/>
<path d="M6.5 10.1406C6.02604 10.1406 5.61589 10.0534 5.26953 9.87891C4.92318 9.70443 4.65495 9.46094 4.46484 9.14844C4.27734 8.83594 4.18359 8.47266 4.18359 8.05859V4.36328H5.1875V7.97656C5.1875 8.23438 5.23828 8.46094 5.33984 8.65625C5.44401 8.84896 5.59375 9 5.78906 9.10938C5.98438 9.21615 6.22266 9.26953 6.50391 9.26953C6.78255 9.26953 7.01953 9.21615 7.21484 9.10938C7.41016 9 7.55859 8.84896 7.66016 8.65625C7.76172 8.46094 7.8125 8.23438 7.8125 7.97656V4.36328H8.81641V8.05859C8.81641 8.47266 8.72266 8.83594 8.53516 9.14844C8.34766 9.46094 8.08073 9.70443 7.73438 9.87891C7.39062 10.0534 6.97917 10.1406 6.5 10.1406Z" fill="#808080" style="fill:#808080;fill:color(display-p3 0.5020 0.5020 0.5020);fill-opacity:1;"/>
</symbol><symbol viewBox="0 0 13 14" id="ue91c-v--">
<rect x="0.5" y="0.5" width="12" height="13" rx="1.5" stroke="#808080" style="stroke:#808080;stroke:color(display-p3 0.5020 0.5020 0.5020);stroke-opacity:1;"/>
<path d="M5.91016 10L3.96094 4.36328H5.07031L6.46484 8.83594H6.53125L7.92969 4.36328H9.03906L7.08594 10H5.91016Z" fill="#808080" style="fill:#808080;fill:color(display-p3 0.5020 0.5020 0.5020);fill-opacity:1;"/>
</symbol><symbol viewBox="0 0 14 14" id="ue91d-w--">
<rect x="0.5" y="0.5" width="13" height="13" rx="1.5" stroke="#808080" style="stroke:#808080;stroke:color(display-p3 0.5020 0.5020 0.5020);stroke-opacity:1;"/>
<path d="M4.87891 10L3.36719 4.36328H4.41406L5.38281 8.59375H5.4375L6.55078 4.36328H7.44531L8.57031 8.59375H8.625L9.58984 4.36328H10.6289L9.12109 10H8.17578L7.02734 5.96484H6.96875L5.82812 10H4.87891Z" fill="#808080" style="fill:#808080;fill:color(display-p3 0.5020 0.5020 0.5020);fill-opacity:1;"/>
</symbol><symbol viewBox="0 0 13 14" id="ue91e-x--">
<rect x="0.5" y="0.5" width="12" height="13" rx="1.5" stroke="#808080" style="stroke:#808080;stroke:color(display-p3 0.5020 0.5020 0.5020);stroke-opacity:1;"/>
<path d="M4 10L6.07422 6.80078L5.83984 7.60547V7.14844L4.01562 4.36328H5.20703L6.51562 6.48438H6.98047L6.32422 6.86328L7.86719 4.36328H8.99219L7.10938 7.17578V7.63281L6.87109 6.82812L8.96094 10H7.80078L6.46875 7.92578H6.00781L6.67188 7.55469L5.09766 10H4Z" fill="#808080" style="fill:#808080;fill:color(display-p3 0.5020 0.5020 0.5020);fill-opacity:1;"/>
</symbol><symbol viewBox="0 0 13 14" id="ue91f-y--">
<rect x="0.5" y="0.5" width="12" height="13" rx="1.5" stroke="#808080" style="stroke:#808080;stroke:color(display-p3 0.5020 0.5020 0.5020);stroke-opacity:1;"/>
<path d="M6 10V7.77734L4.02344 4.36328H5.125L6.46875 6.78125H6.53516L7.87891 4.36328H8.98047L7.00391 7.77734V10H6Z" fill="#808080" style="fill:#808080;fill:color(display-p3 0.5020 0.5020 0.5020);fill-opacity:1;"/>
</symbol><symbol viewBox="0 0 13 14" id="ue920-z--">
<rect x="0.5" y="0.5" width="12" height="13" rx="1.5" stroke="#808080" style="stroke:#808080;stroke:color(display-p3 0.5020 0.5020 0.5020);stroke-opacity:1;"/>
<path d="M4.35547 10V9.32812L7.32031 5.27734V5.21094H4.4375V4.36328H8.56641V5.03125L5.61328 9.08594V9.15234H8.64062V10H4.35547Z" fill="#808080" style="fill:#808080;fill:color(display-p3 0.5020 0.5020 0.5020);fill-opacity:1;"/>
</symbol><symbol viewBox="0 0 31 14" id="ue921-delete--">
<rect x="0.5" y="0.5" width="30" height="13" rx="1.5" stroke="#808080" style="stroke:#808080;stroke:color(display-p3 0.5020 0.5020 0.5020);stroke-opacity:1;"/>
<path d="M5.32812 10.0703C4.97396 10.0703 4.66536 9.98177 4.40234 9.80469C4.13932 9.625 3.9362 9.36979 3.79297 9.03906C3.64974 8.70833 3.57812 8.31901 3.57812 7.87109V7.86328C3.57812 7.41016 3.64844 7.01953 3.78906 6.69141C3.93229 6.36068 4.13411 6.10677 4.39453 5.92969C4.65755 5.75 4.96875 5.66016 5.32812 5.66016C5.52344 5.66016 5.70573 5.69141 5.875 5.75391C6.04427 5.8138 6.19271 5.89974 6.32031 6.01172C6.45052 6.1237 6.55208 6.25651 6.625 6.41016H6.69531V4.07812H7.66406V10H6.69531V9.33203H6.625C6.54688 9.48568 6.44401 9.61849 6.31641 9.73047C6.19141 9.83984 6.04557 9.92448 5.87891 9.98438C5.71224 10.0417 5.52865 10.0703 5.32812 10.0703ZM5.63281 9.25C5.85417 9.25 6.04427 9.19531 6.20312 9.08594C6.36458 8.97396 6.48828 8.8151 6.57422 8.60938C6.66276 8.40104 6.70703 8.15495 6.70703 7.87109V7.86328C6.70703 7.57682 6.66276 7.33073 6.57422 7.125C6.48828 6.91927 6.36458 6.76042 6.20312 6.64844C6.04427 6.53646 5.85417 6.48047 5.63281 6.48047C5.41406 6.48047 5.22396 6.53646 5.0625 6.64844C4.90365 6.75781 4.78125 6.91667 4.69531 7.125C4.60938 7.33073 4.56641 7.57682 4.56641 7.86328V7.87109C4.56641 8.15755 4.60938 8.40365 4.69531 8.60938C4.78125 8.8151 4.90365 8.97396 5.0625 9.08594C5.22135 9.19531 5.41146 9.25 5.63281 9.25ZM10.7188 10.0859C10.2943 10.0859 9.92969 9.99609 9.625 9.81641C9.32292 9.63672 9.08984 9.38151 8.92578 9.05078C8.76172 8.72005 8.67969 8.32812 8.67969 7.875V7.87109C8.67969 7.42318 8.76042 7.03255 8.92188 6.69922C9.08594 6.36589 9.31771 6.10807 9.61719 5.92578C9.91667 5.74089 10.2682 5.64844 10.6719 5.64844C11.0781 5.64844 11.4271 5.73828 11.7188 5.91797C12.013 6.09505 12.2396 6.34375 12.3984 6.66406C12.5573 6.98438 12.6367 7.35938 12.6367 7.78906V8.10938H9.16797V7.45703H12.1602L11.6992 8.06641V7.67969C11.6992 7.39583 11.6562 7.16016 11.5703 6.97266C11.4844 6.78516 11.3646 6.64453 11.2109 6.55078C11.0599 6.45703 10.8841 6.41016 10.6836 6.41016C10.4831 6.41016 10.3047 6.45964 10.1484 6.55859C9.99479 6.65495 9.8724 6.79818 9.78125 6.98828C9.69271 7.17578 9.64844 7.40625 9.64844 7.67969V8.07031C9.64844 8.33333 9.69271 8.55859 9.78125 8.74609C9.86979 8.93099 9.99479 9.07422 10.1562 9.17578C10.3203 9.27474 10.5143 9.32422 10.7383 9.32422C10.9128 9.32422 11.0625 9.29948 11.1875 9.25C11.3151 9.19792 11.418 9.13672 11.4961 9.06641C11.5742 8.99349 11.6289 8.92448 11.6602 8.85938L11.6719 8.83203H12.5938L12.5859 8.86719C12.5521 9.00521 12.4896 9.14583 12.3984 9.28906C12.3099 9.42969 12.1888 9.5612 12.0352 9.68359C11.8841 9.80339 11.6992 9.90104 11.4805 9.97656C11.2617 10.0495 11.0078 10.0859 10.7188 10.0859ZM13.6484 10V4.07812H14.6211V10H13.6484ZM17.6719 10.0859C17.2474 10.0859 16.8828 9.99609 16.5781 9.81641C16.276 9.63672 16.043 9.38151 15.8789 9.05078C15.7148 8.72005 15.6328 8.32812 15.6328 7.875V7.87109C15.6328 7.42318 15.7135 7.03255 15.875 6.69922C16.0391 6.36589 16.2708 6.10807 16.5703 5.92578C16.8698 5.74089 17.2214 5.64844 17.625 5.64844C18.0312 5.64844 18.3802 5.73828 18.6719 5.91797C18.9661 6.09505 19.1927 6.34375 19.3516 6.66406C19.5104 6.98438 19.5898 7.35938 19.5898 7.78906V8.10938H16.1211V7.45703H19.1133L18.6523 8.06641V7.67969C18.6523 7.39583 18.6094 7.16016 18.5234 6.97266C18.4375 6.78516 18.3177 6.64453 18.1641 6.55078C18.013 6.45703 17.8372 6.41016 17.6367 6.41016C17.4362 6.41016 17.2578 6.45964 17.1016 6.55859C16.9479 6.65495 16.8255 6.79818 16.7344 6.98828C16.6458 7.17578 16.6016 7.40625 16.6016 7.67969V8.07031C16.6016 8.33333 16.6458 8.55859 16.7344 8.74609C16.8229 8.93099 16.9479 9.07422 17.1094 9.17578C17.2734 9.27474 17.4674 9.32422 17.6914 9.32422C17.8659 9.32422 18.0156 9.29948 18.1406 9.25C18.2682 9.19792 18.3711 9.13672 18.4492 9.06641C18.5273 8.99349 18.582 8.92448 18.6133 8.85938L18.625 8.83203H19.5469L19.5391 8.86719C19.5052 9.00521 19.4427 9.14583 19.3516 9.28906C19.263 9.42969 19.1419 9.5612 18.9883 9.68359C18.8372 9.80339 18.6523 9.90104 18.4336 9.97656C18.2148 10.0495 17.9609 10.0859 17.6719 10.0859ZM22.2422 10.0195C21.7526 10.0195 21.3997 9.92969 21.1836 9.75C20.9674 9.57031 20.8594 9.27604 20.8594 8.86719V6.48438H20.1953V5.73047H20.8594V4.68359H21.8477V5.73047H22.7461V6.48438H21.8477V8.63672C21.8477 8.84766 21.8919 9.0026 21.9805 9.10156C22.0716 9.19792 22.2174 9.24609 22.418 9.24609C22.4883 9.24609 22.5456 9.24479 22.5898 9.24219C22.6367 9.23698 22.6888 9.23177 22.7461 9.22656V9.97656C22.6784 9.98958 22.6003 10 22.5117 10.0078C22.4258 10.0156 22.3359 10.0195 22.2422 10.0195ZM25.5078 10.0859C25.0833 10.0859 24.7188 9.99609 24.4141 9.81641C24.112 9.63672 23.8789 9.38151 23.7148 9.05078C23.5508 8.72005 23.4688 8.32812 23.4688 7.875V7.87109C23.4688 7.42318 23.5495 7.03255 23.7109 6.69922C23.875 6.36589 24.1068 6.10807 24.4062 5.92578C24.7057 5.74089 25.0573 5.64844 25.4609 5.64844C25.8672 5.64844 26.2161 5.73828 26.5078 5.91797C26.8021 6.09505 27.0286 6.34375 27.1875 6.66406C27.3464 6.98438 27.4258 7.35938 27.4258 7.78906V8.10938H23.957V7.45703H26.9492L26.4883 8.06641V7.67969C26.4883 7.39583 26.4453 7.16016 26.3594 6.97266C26.2734 6.78516 26.1536 6.64453 26 6.55078C25.849 6.45703 25.6732 6.41016 25.4727 6.41016C25.2721 6.41016 25.0938 6.45964 24.9375 6.55859C24.7839 6.65495 24.6615 6.79818 24.5703 6.98828C24.4818 7.17578 24.4375 7.40625 24.4375 7.67969V8.07031C24.4375 8.33333 24.4818 8.55859 24.5703 8.74609C24.6589 8.93099 24.7839 9.07422 24.9453 9.17578C25.1094 9.27474 25.3034 9.32422 25.5273 9.32422C25.7018 9.32422 25.8516 9.29948 25.9766 9.25C26.1042 9.19792 26.207 9.13672 26.2852 9.06641C26.3633 8.99349 26.418 8.92448 26.4492 8.85938L26.4609 8.83203H27.3828L27.375 8.86719C27.3411 9.00521 27.2786 9.14583 27.1875 9.28906C27.099 9.42969 26.9779 9.5612 26.8242 9.68359C26.6732 9.80339 26.4883 9.90104 26.2695 9.97656C26.0508 10.0495 25.7969 10.0859 25.5078 10.0859Z" fill="#808080" style="fill:#808080;fill:color(display-p3 0.5020 0.5020 0.5020);fill-opacity:1;"/>
</symbol><symbol viewBox="0 0 13 14" id="ue922-z2--">
<rect x="0.5" y="0.5" width="12" height="13" rx="1.5" stroke="#808080" style="stroke:#808080;stroke:color(display-p3 0.5020 0.5020 0.5020);stroke-opacity:1;"/>
<path d="M5.64844 11.4883L5.98828 9.14062H6.98828L6.3125 11.4883H5.64844ZM6.5 7.17578C6.32292 7.17578 6.17448 7.11719 6.05469 7C5.9375 6.88021 5.87891 6.73438 5.87891 6.5625C5.87891 6.38802 5.9375 6.24219 6.05469 6.125C6.17448 6.00521 6.32292 5.94531 6.5 5.94531C6.67969 5.94531 6.82812 6.00521 6.94531 6.125C7.0625 6.24219 7.12109 6.38802 7.12109 6.5625C7.12109 6.73438 7.0625 6.88021 6.94531 7C6.82812 7.11719 6.67969 7.17578 6.5 7.17578Z" fill="#808080" style="fill:#808080;fill:color(display-p3 0.5020 0.5020 0.5020);fill-opacity:1;"/>
</symbol><symbol viewBox="0 0 31 14" id="ue923-delete2--">
<rect x="0.5" y="0.5" width="30" height="13" rx="1.5" stroke="#808080" style="stroke:#808080;stroke:color(display-p3 0.5020 0.5020 0.5020);stroke-opacity:1;"/>
<path d="M3.96875 10V5.73047H4.94141V6.38672H5.00781C5.08073 6.15755 5.21094 5.97917 5.39844 5.85156C5.58854 5.72396 5.82422 5.66016 6.10547 5.66016C6.17839 5.66016 6.25 5.66536 6.32031 5.67578C6.39323 5.68359 6.45312 5.69401 6.5 5.70703V6.57812C6.42188 6.5599 6.34245 6.54688 6.26172 6.53906C6.18359 6.52865 6.10156 6.52344 6.01562 6.52344C5.79948 6.52344 5.61068 6.5638 5.44922 6.64453C5.28776 6.72526 5.16276 6.84115 5.07422 6.99219C4.98568 7.14062 4.94141 7.31641 4.94141 7.51953V10H3.96875ZM9.01562 10.0859C8.59115 10.0859 8.22656 9.99609 7.92188 9.81641C7.61979 9.63672 7.38672 9.38151 7.22266 9.05078C7.05859 8.72005 6.97656 8.32812 6.97656 7.875V7.87109C6.97656 7.42318 7.05729 7.03255 7.21875 6.69922C7.38281 6.36589 7.61458 6.10807 7.91406 5.92578C8.21354 5.74089 8.5651 5.64844 8.96875 5.64844C9.375 5.64844 9.72396 5.73828 10.0156 5.91797C10.3099 6.09505 10.5365 6.34375 10.6953 6.66406C10.8542 6.98438 10.9336 7.35938 10.9336 7.78906V8.10938H7.46484V7.45703H10.457L9.99609 8.06641V7.67969C9.99609 7.39583 9.95312 7.16016 9.86719 6.97266C9.78125 6.78516 9.66146 6.64453 9.50781 6.55078C9.35677 6.45703 9.18099 6.41016 8.98047 6.41016C8.77995 6.41016 8.60156 6.45964 8.44531 6.55859C8.29167 6.65495 8.16927 6.79818 8.07812 6.98828C7.98958 7.17578 7.94531 7.40625 7.94531 7.67969V8.07031C7.94531 8.33333 7.98958 8.55859 8.07812 8.74609C8.16667 8.93099 8.29167 9.07422 8.45312 9.17578C8.61719 9.27474 8.8112 9.32422 9.03516 9.32422C9.20964 9.32422 9.35938 9.29948 9.48438 9.25C9.61198 9.19792 9.71484 9.13672 9.79297 9.06641C9.87109 8.99349 9.92578 8.92448 9.95703 8.85938L9.96875 8.83203H10.8906L10.8828 8.86719C10.849 9.00521 10.7865 9.14583 10.6953 9.28906C10.6068 9.42969 10.4857 9.5612 10.332 9.68359C10.181 9.80339 9.99609 9.90104 9.77734 9.97656C9.55859 10.0495 9.30469 10.0859 9.01562 10.0859ZM13.5859 10.0195C13.0964 10.0195 12.7435 9.92969 12.5273 9.75C12.3112 9.57031 12.2031 9.27604 12.2031 8.86719V6.48438H11.5391V5.73047H12.2031V4.68359H13.1914V5.73047H14.0898V6.48438H13.1914V8.63672C13.1914 8.84766 13.2357 9.0026 13.3242 9.10156C13.4154 9.19792 13.5612 9.24609 13.7617 9.24609C13.832 9.24609 13.8893 9.24479 13.9336 9.24219C13.9805 9.23698 14.0326 9.23177 14.0898 9.22656V9.97656C14.0221 9.98958 13.944 10 13.8555 10.0078C13.7695 10.0156 13.6797 10.0195 13.5859 10.0195ZM16.4766 10.0859C16.1589 10.0859 15.8919 10.0247 15.6758 9.90234C15.4596 9.77734 15.2969 9.59635 15.1875 9.35938C15.0781 9.11979 15.0234 8.83073 15.0234 8.49219V5.73047H15.9961V8.26953C15.9961 8.60026 16.0612 8.84896 16.1914 9.01562C16.3216 9.18229 16.5339 9.26562 16.8281 9.26562C16.9844 9.26562 17.1224 9.24219 17.2422 9.19531C17.3646 9.14583 17.4661 9.07552 17.5469 8.98438C17.6276 8.89323 17.6888 8.78385 17.7305 8.65625C17.7721 8.52604 17.793 8.38021 17.793 8.21875V5.73047H18.7656V10H17.793V9.35156H17.7266C17.6615 9.5026 17.5703 9.63411 17.4531 9.74609C17.3359 9.85547 17.1953 9.9401 17.0312 10C16.8672 10.0573 16.6823 10.0859 16.4766 10.0859ZM19.9531 10V5.73047H20.9258V6.38672H20.9922C21.0651 6.15755 21.1953 5.97917 21.3828 5.85156C21.5729 5.72396 21.8086 5.66016 22.0898 5.66016C22.1628 5.66016 22.2344 5.66536 22.3047 5.67578C22.3776 5.68359 22.4375 5.69401 22.4844 5.70703V6.57812C22.4062 6.5599 22.3268 6.54688 22.2461 6.53906C22.168 6.52865 22.0859 6.52344 22 6.52344C21.7839 6.52344 21.5951 6.5638 21.4336 6.64453C21.2721 6.72526 21.1471 6.84115 21.0586 6.99219C20.9701 7.14062 20.9258 7.31641 20.9258 7.51953V10H19.9531ZM23.3281 10V5.73047H24.3008V6.38672H24.3672C24.4688 6.15495 24.6224 5.97396 24.8281 5.84375C25.0339 5.71354 25.2904 5.64844 25.5977 5.64844C26.0742 5.64844 26.4388 5.78646 26.6914 6.0625C26.944 6.33854 27.0703 6.73047 27.0703 7.23828V10H26.0977V7.46484C26.0977 7.13151 26.0273 6.88151 25.8867 6.71484C25.7487 6.54818 25.5326 6.46484 25.2383 6.46484C25.0456 6.46484 24.8789 6.50781 24.7383 6.59375C24.5977 6.67969 24.4896 6.80078 24.4141 6.95703C24.3385 7.11328 24.3008 7.29818 24.3008 7.51172V10H23.3281Z" fill="#808080" style="fill:#808080;fill:color(display-p3 0.5020 0.5020 0.5020);fill-opacity:1;"/>
</symbol></svg>